<svg width="618" height="90" viewBox="0 0 618 90" fill="none" xmlns="http://www.w3.org/2000/svg">
<path d="M69.7965 0.199609C80.2965 0.799609 90.6965 1.89961 100.797 4.89961C102.097 5.29961 103.397 5.79961 104.597 6.19961C105.197 6.39961 105.397 6.69961 105.197 7.39961C103.597 12.7996 102.097 18.1996 100.597 23.5996C100.397 24.2996 100.197 24.4996 99.3965 24.1996C90.7965 20.8996 81.7965 19.1996 72.6965 18.3996C65.1965 17.6996 57.6965 17.4996 50.1965 17.7996C44.2965 17.9996 38.3965 18.2996 32.5965 19.6996C30.9965 20.0996 29.3965 20.5996 27.8965 21.4996C24.7965 23.3996 24.6965 26.6996 27.6965 28.7996C29.5965 30.0996 31.6965 30.5996 33.8965 31.0996C39.7965 32.3996 45.7965 32.7996 51.6965 33.2996C63.0965 34.1996 74.5965 34.8996 85.7965 37.4996C90.1965 38.4996 94.4965 39.8996 98.3965 42.1996C104.797 45.8996 107.897 51.4996 108.097 58.7996C108.397 69.6996 103.197 77.1996 93.7965 82.0996C87.5965 85.2996 80.7965 86.8996 73.9965 87.9996C64.2965 89.4996 54.3965 89.6996 44.5965 89.3996C31.0965 88.9996 17.7965 87.5996 4.79653 83.6996C3.99653 83.4996 3.19653 83.1996 2.39653 82.9996C0.796531 82.4996 0.696531 82.2996 1.09653 80.5996C2.09653 76.8996 3.19653 73.2996 4.19653 69.5996C4.59653 68.0996 5.09653 66.6996 5.49653 65.1996C5.69653 64.4996 5.89653 64.3996 6.59653 64.5996C14.5965 67.3996 22.8965 69.1996 31.2965 70.1996C35.8965 70.7996 40.4965 71.0996 45.1965 71.2996C51.6965 71.5996 58.1965 71.3996 64.5965 70.9996C69.0965 70.6996 73.6965 70.0996 77.9965 68.5996C79.5965 67.9996 81.1965 67.2996 82.3965 65.9996C84.7965 63.5996 84.4965 60.2996 81.6965 58.3996C79.4965 56.8996 76.9965 56.2996 74.3965 55.8996C67.9965 54.6996 61.4965 54.1996 54.9965 53.6996C43.5965 52.7996 32.1965 51.8996 21.0965 48.7996C17.3965 47.6996 13.7965 46.3996 10.4965 44.2996C4.89653 40.7996 1.79653 35.7996 1.09653 29.1996C0.396531 22.2996 2.49653 16.4996 7.69653 11.8996C10.4965 9.39961 13.6965 7.59961 17.0965 6.19961C23.2965 3.59961 29.7965 2.19961 36.3965 1.29961C39.8965 0.799609 43.4965 0.499609 47.0965 0.299609C47.4965 0.0996094 47.8965 0.199609 48.2965 0.199609C48.6965 0.199609 49.0965 0.199609 49.4965 0.199609C50.0965 0.0996094 50.6965 0.299609 51.2965 0.0996094C55.7965 0.0996094 60.2965 0.0996094 64.8965 0.0996094C65.5965 0.399609 66.1965 0.199609 66.8965 0.199609C67.3965 0.199609 67.8965 0.199609 68.3965 0.199609C68.7965 0.199609 69.2965 -0.000390626 69.7965 0.199609Z" fill="black"/>
<path d="M304.797 44.6002C304.797 30.9002 304.797 17.2002 304.797 3.5002C304.797 2.5002 304.997 2.2002 306.097 2.2002C322.297 2.2002 338.497 2.2002 354.697 2.2002C355.797 2.2002 356.097 2.5002 356.097 3.6002C355.997 8.4002 355.997 13.3002 356.097 18.1002C356.097 19.2002 355.897 19.5002 354.697 19.5002C345.797 19.4002 336.897 19.5002 327.897 19.4002C326.797 19.4002 326.497 19.7002 326.497 20.8002C326.597 24.6002 326.597 28.4002 326.497 32.1002C326.497 33.0002 326.797 33.3002 327.697 33.3002C336.697 33.3002 345.597 33.3002 354.597 33.3002C355.797 33.3002 356.097 33.7002 356.097 34.8002C355.997 39.4002 355.997 44.0002 356.097 48.6002C356.097 49.6002 355.797 49.8002 354.897 49.8002C345.897 49.8002 336.997 49.8002 327.997 49.8002C326.897 49.8002 326.597 50.1002 326.597 51.2002C326.697 57.0002 326.697 62.8002 326.597 68.6002C326.597 69.7002 326.797 70.0002 327.897 70.0002C336.797 70.0002 345.697 70.0002 354.697 69.9002C355.797 69.9002 356.097 70.2002 356.097 71.3002C355.997 76.1002 355.997 81.0002 356.097 85.8002C356.097 86.9002 355.897 87.2002 354.697 87.2002C338.497 87.2002 322.297 87.2002 306.097 87.2002C304.997 87.2002 304.797 86.9002 304.797 85.9002C304.797 72.1002 304.797 58.4002 304.797 44.6002Z" fill="black"/>
<path d="M114 2.2002C121.5 2.2002 128.8 2.2002 136.1 2.2002C136.9 2.2002 137 2.7002 137.2 3.3002C139.3 9.7002 141.4 16.2002 143.5 22.6002C144.8 26.6002 146.1 30.6002 147.5 34.9002C148.3 32.8002 149 30.9002 149.6 29.0002C152.3 20.5002 155.3 12.0002 158.3 3.5002C158.6 2.6002 159 2.2002 160 2.2002C167.1 2.3002 174.2 2.2002 181.5 2.2002C180.8 4.0002 180.1 5.8002 179.4 7.5002C170.3 29.9002 161.1 52.3002 152 74.8002C150.5 78.6002 149 82.3002 147.6 86.1002C147.3 86.9002 146.9 87.1002 146.1 87.1002C138.9 87.1002 131.6 87.1002 124.4 87.1002C123.3 87.1002 123.2 86.8002 123.7 85.9002C127.6 77.3002 131.3 68.8002 135.2 60.2002C135.5 59.4002 135.6 58.8002 135.3 58.0002C128.3 39.7002 121.3 21.3002 114.3 3.0002C114.2 2.8002 114.1 2.6002 114 2.2002Z" fill="black"/>
<path d="M194.1 88.0998C191.1 87.9998 188.1 87.7998 185.1 87.6998C184.5 87.6998 184.2 87.4998 184.2 86.7998C184.5 81.3998 184.8 75.8998 185 70.4998C185 69.2998 185.5 69.0998 186.5 69.2998C193.3 70.3998 200.1 70.7998 206.8 69.1998C208.4 68.7998 209.9 68.2998 211.2 67.3998C214 65.4998 214.7 62.3998 213 59.5998C211.8 57.6998 210 56.2998 208.2 55.0998C204.6 52.5998 200.7 50.6998 197.1 48.2998C192.7 45.3998 188.8 42.0998 186.3 37.3998C181.1 27.7998 182.7 13.2998 196.4 6.29983C201.5 3.69983 206.9 2.39983 212.6 1.79983C219 1.09983 225.5 1.29983 231.9 1.99983C232.6 2.09983 233 2.09983 232.9 2.99983C232.6 8.39983 232.3 13.7998 232.1 19.1998C232.1 20.1998 231.7 20.2998 230.8 20.1998C224.3 19.2998 217.7 18.8998 211.2 19.9998C209.9 20.1998 208.6 20.5998 207.5 21.2998C205.5 22.4998 204.9 24.5998 205.8 26.6998C206.4 27.9998 207.5 28.9998 208.6 29.8998C211.9 32.2998 215.5 34.1998 219 36.2998C223.2 38.7998 227.2 41.4998 230.3 45.2998C234.7 50.5998 236.1 56.7998 235.5 63.4998C235 68.8998 232.9 73.5998 229.1 77.4998C225.5 81.0998 221.1 83.3998 216.4 84.9998C209.2 87.3998 201.7 88.0998 194.1 88.0998Z" fill="black"/>
<path d="M277.602 53.9002C277.602 64.6002 277.602 75.2002 277.602 85.9002C277.602 86.9002 277.402 87.2002 276.302 87.2002C270.002 87.1002 263.602 87.1002 257.302 87.2002C256.202 87.2002 255.902 86.9002 255.902 85.8002C255.902 64.5002 255.902 43.3002 255.902 22.0002C255.902 20.2002 256.102 20.4002 254.302 20.4002C249.502 20.4002 244.602 20.4002 239.802 20.4002C238.802 20.4002 238.602 20.1002 238.602 19.2002C238.602 13.9002 238.602 8.6002 238.602 3.3002C238.602 2.5002 238.802 2.2002 239.702 2.2002C257.702 2.2002 275.802 2.2002 293.802 2.2002C294.702 2.2002 294.902 2.4002 294.902 3.3002C294.902 8.6002 294.902 14.0002 294.902 19.3002C294.902 20.3002 294.602 20.4002 293.702 20.4002C288.702 20.4002 283.802 20.4002 278.802 20.4002C277.802 20.4002 277.602 20.6002 277.602 21.6002C277.702 32.4002 277.602 43.1002 277.602 53.9002Z" fill="black"/>
<path d="M617.103 36.9998C615.703 26.1998 610.203 17.9998 601.303 11.8998C598.903 10.2998 596.303 8.99983 593.703 7.89983C583.503 3.79983 572.803 2.29983 561.903 2.19983C540.803 2.09983 519.703 2.19983 498.603 2.09983C497.403 2.09983 497.203 2.49983 497.203 3.49983C497.203 26.6998 497.203 49.8998 497.203 73.0998C497.203 74.2998 497.003 74.5998 495.703 74.5998C479.403 74.5998 463.103 74.5998 446.903 74.5998C445.703 74.5998 445.403 74.2998 445.403 73.0998C445.403 49.6998 445.403 26.1998 445.403 2.79983C445.403 2.39983 445.403 2.09983 445.403 1.69983C445.403 1.39983 445.303 1.09983 445.003 1.19983C443.803 1.29983 442.503 0.799835 441.303 1.99983C436.603 6.89983 431.803 11.6998 427.003 16.5998C420.903 22.7998 414.703 28.8998 408.603 35.1998C407.803 35.9998 407.403 36.0998 406.503 35.1998C395.803 24.2998 385.003 13.4998 374.303 2.59983C373.303 1.59983 372.303 1.09983 370.903 1.19983C370.003 1.29983 369.703 1.49983 369.703 2.39983C369.703 30.2998 369.703 58.0998 369.703 85.9998C369.703 86.9998 370.003 87.1998 371.003 87.1998C377.303 87.1998 383.603 87.0998 389.903 87.1998C391.103 87.1998 391.403 86.8998 391.403 85.6998C391.403 73.2998 391.403 60.7998 391.403 48.3998C391.403 47.9998 391.203 47.4998 391.603 47.0998C391.703 47.1998 391.903 47.2998 392.003 47.3998C396.603 52.2998 401.303 57.0998 405.903 61.9998C406.903 63.0998 407.903 63.0998 408.903 62.0998C411.403 59.4998 413.903 56.8998 416.403 54.2998C418.803 51.7998 421.203 49.2998 423.903 46.4998C423.903 47.2998 423.903 47.7998 423.903 48.1998C423.903 60.6998 423.903 73.1998 423.903 85.5998C423.903 87.1998 423.903 87.1998 425.503 87.1998C470.403 87.1998 515.303 87.1998 560.203 87.1998C567.103 87.1998 573.903 86.5998 580.603 84.9998C589.103 82.9998 597.303 80.0998 604.103 74.2998C608.703 70.2998 612.403 65.6998 614.703 59.9998C617.603 52.4998 618.203 44.7998 617.103 36.9998ZM581.203 63.7998C576.003 66.4998 570.403 67.7998 564.603 68.3998C557.603 69.1998 550.603 68.7998 543.503 68.8998C536.403 68.9998 529.303 68.8998 522.203 68.8998C521.203 68.8998 520.903 68.5998 520.903 67.5998C520.903 59.8998 520.903 52.2998 520.903 44.5998C520.903 36.8998 520.903 29.1998 520.903 21.4998C520.903 20.6998 521.003 20.3998 522.003 20.3998C534.603 20.4998 547.203 20.2998 559.803 20.4998C567.003 20.5998 574.103 21.7998 580.703 24.8998C586.803 27.7998 591.303 32.1998 592.803 39.0998C594.803 48.8998 591.403 58.4998 581.203 63.7998Z" fill="black"/>
</svg>
