<svg width="145" height="47" viewBox="0 0 145 47" fill="none" xmlns="http://www.w3.org/2000/svg">
<path d="M108.015 44C103.721 44 99.8793 43.2966 96.4895 41.8897C93.0997 40.4828 90.4161 38.4931 88.4387 35.9206C86.4613 33.3078 85.4727 30.2127 85.4727 26.6353C85.4727 23.3392 86.1789 20.2642 87.5913 17.4103C89.0037 14.5564 91.0659 12.0441 93.7777 9.87353C96.4895 7.70294 99.8228 6.01471 103.778 4.80882C107.732 3.60294 112.252 3 117.337 3C121.969 3 126.065 3.56274 129.625 4.68824C133.184 5.77353 136.037 7.34118 138.184 9.39118C140.387 11.4412 141.658 13.8529 141.997 16.6265L123.693 18.5559C123.693 17.149 123.156 15.9632 122.082 14.9985C121.065 14.0338 119.399 13.5515 117.082 13.5515C115.444 13.5515 113.89 13.8529 112.421 14.4559C111.009 15.0186 109.738 15.8426 108.608 16.9279C107.535 17.973 106.687 19.2392 106.066 20.7265C105.444 22.2137 105.133 23.8618 105.133 25.6706C105.133 27.3186 105.444 28.7657 106.066 30.0118C106.687 31.2578 107.704 32.2225 109.116 32.9059C110.529 33.5892 112.421 33.9309 114.794 33.9309C116.263 33.9309 117.534 33.7902 118.608 33.5088C119.681 33.2274 120.585 32.8456 121.32 32.3632C122.054 31.8407 122.619 31.2779 123.015 30.675L123.693 29.65H113.015L115.727 21.2088H141.658L133.692 43.3971H121.15L124.371 33.0868L125.981 34.2926C125.02 36.3828 123.749 38.1515 122.167 39.5985C120.642 41.0456 118.721 42.151 116.404 42.9147C114.088 43.6382 111.292 44 108.015 44Z" fill="#1C1C1E"/>
<path fill-rule="evenodd" clip-rule="evenodd" d="M86.0602 37.7488L86.0466 37.731C83.6381 34.5486 82.4727 30.8028 82.4727 26.6353C82.4727 22.8943 83.2782 19.362 84.9026 16.0796C86.5264 12.7986 88.8807 9.95049 91.903 7.53139L93.7777 9.87353C91.0659 12.0441 89.0037 14.5564 87.5913 17.4103C86.1789 20.2642 85.4727 23.3392 85.4727 26.6353C85.4727 30.2127 86.4613 33.3078 88.4387 35.9206C90.4161 38.4931 93.0997 40.4828 96.4895 41.8897C99.8793 43.2966 103.721 44 108.015 44C111.292 44 114.088 43.6382 116.404 42.9147C117.108 42.6829 117.774 42.4195 118.405 42.1247C119.413 41.653 120.328 41.1007 121.15 40.4678C121.181 40.4443 121.211 40.4207 121.241 40.3971C121.565 40.1436 121.873 39.8774 122.167 39.5985C122.248 39.5248 122.328 39.4503 122.407 39.3749L121.15 43.3971H133.692L141.658 21.2088H115.727L113.015 29.65H123.693L123.015 30.675C122.659 31.2165 122.167 31.7256 121.539 32.2023C121.524 32.2138 121.508 32.2253 121.493 32.2368C121.436 32.2792 121.379 32.3213 121.32 32.3632C121.168 32.4631 121.008 32.5587 120.842 32.65C120.204 32.9994 119.459 33.2857 118.608 33.5088C117.534 33.7902 116.263 33.9309 114.794 33.9309C112.421 33.9309 110.529 33.5892 109.116 32.9059C107.704 32.2225 106.687 31.2578 106.066 30.0118C105.444 28.7657 105.133 27.3186 105.133 25.6706C105.133 23.8618 105.444 22.2137 106.066 20.7265C106.687 19.2392 107.535 17.973 108.608 16.9279C109.738 15.8426 111.009 15.0186 112.421 14.4559C113.89 13.8529 115.444 13.5515 117.082 13.5515C119.399 13.5515 121.065 14.0338 122.082 14.9985C122.872 15.7078 123.371 16.5365 123.58 17.4848C123.631 17.7189 123.665 17.9602 123.681 18.2088C123.689 18.323 123.693 18.4387 123.693 18.5559L141.997 16.6265C141.872 15.5979 141.618 14.6192 141.236 13.6901C140.587 12.1139 139.57 10.681 138.184 9.39118C136.037 7.34118 133.184 5.77353 129.625 4.68824C126.065 3.56275 121.969 3 117.337 3C112.252 3 107.732 3.60294 103.778 4.80882L102.903 1.93926C107.197 0.629711 112.021 0 117.337 0C122.199 0 126.606 0.589185 130.514 1.82319C134.397 3.00907 137.686 4.77296 140.242 7.20804C142.911 9.69723 144.544 12.7373 144.975 16.2625C145.073 17.0609 144.846 17.8649 144.345 18.4943C144.173 18.7111 143.973 18.9008 143.752 19.0599C143.884 19.1883 144.004 19.3295 144.112 19.4827C144.674 20.2814 144.812 21.3035 144.482 22.2225L136.516 44.4108C136.088 45.6023 134.958 46.3971 133.692 46.3971H121.15C120.221 46.3971 119.346 45.9669 118.779 45.2349C118.313 45.426 117.834 45.6022 117.344 45.7638C117.329 45.7688 117.314 45.7736 117.299 45.7783C114.612 46.6176 111.496 47 108.015 47C103.392 47 99.1503 46.2421 95.3395 44.6605C91.5295 43.0793 88.3977 40.79 86.0602 37.7488ZM120.666 18.2088C120.604 17.8462 120.43 17.5469 120.077 17.2298C120.057 17.2118 120.037 17.1936 120.018 17.175C119.826 16.993 119.103 16.5515 117.082 16.5515C115.822 16.5515 114.657 16.7814 113.561 17.2312L113.532 17.2428C112.493 17.6566 111.551 18.2627 110.694 19.0844C109.935 19.8253 109.31 20.7438 108.834 21.8831C108.383 22.9617 108.133 24.2104 108.133 25.6706C108.133 26.9387 108.371 27.9124 108.75 28.6728C108.994 29.1608 109.381 29.6091 110.035 29.9974C109.986 29.5774 110.026 29.1461 110.158 28.7324L112.87 20.2912C113.269 19.0503 114.423 18.2088 115.727 18.2088H120.666ZM103.778 4.80882L102.903 1.93926C98.6519 3.23537 94.9623 5.08268 91.903 7.53139L93.7777 9.87353C96.4895 7.70294 99.8228 6.01471 103.778 4.80882Z" fill="#DEFE04"/>
<path d="M89.9576 3.60272L76.9917 43.3968H57.2461L70.2121 3.60272H89.9576Z" fill="#1C1C1E"/>
<path fill-rule="evenodd" clip-rule="evenodd" d="M92.3854 1.84036C92.9498 2.61785 93.1077 3.61863 92.8101 4.53211L79.8441 44.3262C79.4418 45.5611 78.2905 46.3968 76.9917 46.3968H57.2461C56.2854 46.3968 55.3827 45.9367 54.8183 45.1592C54.2539 44.3817 54.0961 43.3809 54.3937 42.4674L67.3597 2.67333C67.7621 1.43845 68.9134 0.602722 70.2121 0.602722H89.9576C90.9184 0.602722 91.821 1.06287 92.3854 1.84036ZM89.9576 3.60272H70.2121L57.2461 43.3968H76.9917L89.9576 3.60272Z" fill="#DEFE04"/>
<path d="M3.82812 43.3968L16.7941 3.60272H46.7937C52.3304 3.60272 56.7089 4.44684 59.9292 6.13507C63.206 7.78311 64.8444 10.0944 64.8444 13.0689C64.8444 15.1993 64.1664 17.0081 62.8105 18.4954C61.5111 19.9826 59.7879 21.1684 57.6411 22.0527C55.4942 22.8968 53.1214 23.4596 50.5225 23.741V23.8013C53.8558 23.962 56.5676 24.7258 58.658 26.0924C60.8049 27.4591 61.8783 29.2679 61.8783 31.5189C61.8783 34.212 60.9461 36.4429 59.0817 38.2115C57.2738 39.94 54.7033 41.2463 51.37 42.1307C48.0367 42.9748 44.1667 43.3968 39.76 43.3968H3.82812ZM25.6923 34.2321H35.6074C37.5848 34.2321 39.1385 33.991 40.2684 33.5086C41.4548 32.9861 42.048 32.162 42.048 31.0365C42.048 30.4738 41.8503 30.0115 41.4548 29.6498C41.1158 29.2478 40.5791 28.9463 39.8447 28.7454C39.1667 28.5444 38.291 28.4439 37.2176 28.4439H27.6414L25.6923 34.2321ZM30.6922 19.038H38.4888C39.8447 19.038 40.9746 18.9174 41.8785 18.6763C42.839 18.3949 43.5452 18.013 43.9971 17.5307C44.5056 17.0483 44.7599 16.4856 44.7599 15.8424C44.7599 14.9983 44.3362 14.3552 43.4887 13.913C42.6978 13.4709 41.5678 13.2498 40.0989 13.2498H32.5567L30.6922 19.038Z" fill="#1C1C1E"/>
<path fill-rule="evenodd" clip-rule="evenodd" d="M1.40037 45.1592C0.835978 44.3817 0.678102 43.3809 0.97574 42.4674L13.9418 2.67333C14.3441 1.43845 15.4954 0.602722 16.7942 0.602722H46.7937C52.5726 0.602722 57.4862 1.47375 61.2998 3.46635C65.2929 5.48186 67.8444 8.68291 67.8444 13.0689C67.8444 15.8883 66.9256 18.4229 65.0491 20.4928C63.8526 21.8562 62.4078 22.9808 60.7551 23.8871C63.3413 25.7077 64.8783 28.291 64.8783 31.5189C64.8783 34.9889 63.6407 38.0199 61.1504 40.3843C58.8646 42.5678 55.7832 44.0636 52.1393 45.0303L52.1065 45.0389C48.4761 45.9582 44.3492 46.3968 39.76 46.3968H3.82815C2.8674 46.3968 1.96477 45.9367 1.40037 45.1592ZM59.0818 38.2115C60.9461 36.4429 61.8783 34.212 61.8783 31.5189C61.8783 29.2679 60.8049 27.4591 58.658 26.0924C58.2432 25.8212 57.8038 25.5737 57.34 25.35C55.4683 24.4471 53.198 23.931 50.5291 23.8016C50.5269 23.8015 50.5247 23.8014 50.5226 23.8013V23.741C50.5235 23.7409 50.5245 23.7407 50.5255 23.7406C53.044 23.4677 55.3502 22.9306 57.4441 22.1291C57.51 22.1039 57.5756 22.0785 57.6411 22.0527C59.7879 21.1684 61.5111 19.9826 62.8105 18.4954C64.1664 17.0081 64.8444 15.1993 64.8444 13.0689C64.8444 10.0944 63.206 7.78311 59.9292 6.13507C56.7089 4.44684 52.3304 3.60272 46.7937 3.60272H16.7942L3.82815 43.3968H39.76C44.1667 43.3968 48.0367 42.9748 51.37 42.1307C54.7033 41.2463 57.2739 39.94 59.0818 38.2115ZM35.6074 34.2321C37.5848 34.2321 39.1385 33.991 40.2684 33.5086C41.4548 32.9861 42.048 32.162 42.048 31.0365C42.048 30.4738 41.8503 30.0115 41.4548 29.6498C41.1159 29.2478 40.5791 28.9463 39.8447 28.7454C39.1667 28.5444 38.291 28.4439 37.2176 28.4439H27.6414L25.6923 34.2321H35.6074ZM32.5567 13.2498H40.0989C41.5678 13.2498 42.6978 13.4709 43.4887 13.913C44.3362 14.3552 44.7599 14.9983 44.7599 15.8424C44.7599 16.4856 44.5056 17.0483 43.9972 17.5307C43.5452 18.013 42.839 18.3949 41.8786 18.6763C40.9746 18.9174 39.8447 19.038 38.4888 19.038H30.6923L32.5567 13.2498Z" fill="#DEFE04"/>
</svg>
