<svg viewBox="0 0 137 39" fill="none" xmlns="http://www.w3.org/2000/svg">
<mask id="path-1-outside-1_96_65006" maskUnits="userSpaceOnUse" x="77.0156" y="0" width="60" height="39" fill="black">
<rect fill="white" x="77.0156" width="60" height="39"/>
<path d="M101.28 36C97.2297 36 93.6057 35.4338 90.408 34.3015C87.2104 33.1691 84.6789 31.5676 82.8136 29.4971C80.9483 27.3941 80.0156 24.9029 80.0156 22.0235C80.0156 19.3706 80.6818 16.8956 82.0142 14.5985C83.3466 12.3015 85.2918 10.2794 87.8499 8.53235C90.408 6.78529 93.5524 5.42647 97.283 4.45588C101.014 3.48529 105.277 3 110.074 3C114.444 3 118.308 3.45294 121.665 4.35882C125.023 5.23235 127.714 6.49412 129.739 8.14412C131.818 9.79412 133.017 11.7353 133.337 13.9676L116.069 15.5206C116.069 14.3882 115.563 13.4338 114.55 12.6574C113.591 11.8809 112.019 11.4926 109.834 11.4926C108.288 11.4926 106.823 11.7353 105.437 12.2206C104.105 12.6735 102.905 13.3368 101.84 14.2103C100.827 15.0515 100.028 16.0706 99.4414 17.2676C98.8551 18.4647 98.5621 19.7912 98.5621 21.2471C98.5621 22.5735 98.8551 23.7382 99.4414 24.7412C100.028 25.7441 100.987 26.5206 102.319 27.0706C103.652 27.6206 105.437 27.8956 107.675 27.8956C109.061 27.8956 110.26 27.7824 111.273 27.5559C112.285 27.3294 113.138 27.0221 113.831 26.6338C114.524 26.2132 115.057 25.7603 115.43 25.275L116.069 24.45H105.997L108.555 17.6559H133.017L125.502 35.5147H113.671L116.709 27.2162L118.228 28.1868C117.322 29.8691 116.123 31.2926 114.63 32.4574C113.191 33.6221 111.379 34.5118 109.194 35.1265C107.009 35.7088 104.371 36 101.28 36Z"/>
</mask>
<path d="M101.28 36C97.2297 36 93.6057 35.4338 90.408 34.3015C87.2104 33.1691 84.6789 31.5676 82.8136 29.4971C80.9483 27.3941 80.0156 24.9029 80.0156 22.0235C80.0156 19.3706 80.6818 16.8956 82.0142 14.5985C83.3466 12.3015 85.2918 10.2794 87.8499 8.53235C90.408 6.78529 93.5524 5.42647 97.283 4.45588C101.014 3.48529 105.277 3 110.074 3C114.444 3 118.308 3.45294 121.665 4.35882C125.023 5.23235 127.714 6.49412 129.739 8.14412C131.818 9.79412 133.017 11.7353 133.337 13.9676L116.069 15.5206C116.069 14.3882 115.563 13.4338 114.55 12.6574C113.591 11.8809 112.019 11.4926 109.834 11.4926C108.288 11.4926 106.823 11.7353 105.437 12.2206C104.105 12.6735 102.905 13.3368 101.84 14.2103C100.827 15.0515 100.028 16.0706 99.4414 17.2676C98.8551 18.4647 98.5621 19.7912 98.5621 21.2471C98.5621 22.5735 98.8551 23.7382 99.4414 24.7412C100.028 25.7441 100.987 26.5206 102.319 27.0706C103.652 27.6206 105.437 27.8956 107.675 27.8956C109.061 27.8956 110.26 27.7824 111.273 27.5559C112.285 27.3294 113.138 27.0221 113.831 26.6338C114.524 26.2132 115.057 25.7603 115.43 25.275L116.069 24.45H105.997L108.555 17.6559H133.017L125.502 35.5147H113.671L116.709 27.2162L118.228 28.1868C117.322 29.8691 116.123 31.2926 114.63 32.4574C113.191 33.6221 111.379 34.5118 109.194 35.1265C107.009 35.7088 104.371 36 101.28 36Z" fill="currentColor"/>
<path d="M101.28 36C97.2297 36 93.6057 35.4338 90.408 34.3015C87.2104 33.1691 84.6789 31.5676 82.8136 29.4971C80.9483 27.3941 80.0156 24.9029 80.0156 22.0235C80.0156 19.3706 80.6818 16.8956 82.0142 14.5985C83.3466 12.3015 85.2918 10.2794 87.8499 8.53235C90.408 6.78529 93.5524 5.42647 97.283 4.45588C101.014 3.48529 105.277 3 110.074 3C114.444 3 118.308 3.45294 121.665 4.35882C125.023 5.23235 127.714 6.49412 129.739 8.14412C131.818 9.79412 133.017 11.7353 133.337 13.9676L116.069 15.5206C116.069 14.3882 115.563 13.4338 114.55 12.6574C113.591 11.8809 112.019 11.4926 109.834 11.4926C108.288 11.4926 106.823 11.7353 105.437 12.2206C104.105 12.6735 102.905 13.3368 101.84 14.2103C100.827 15.0515 100.028 16.0706 99.4414 17.2676C98.8551 18.4647 98.5621 19.7912 98.5621 21.2471C98.5621 22.5735 98.8551 23.7382 99.4414 24.7412C100.028 25.7441 100.987 26.5206 102.319 27.0706C103.652 27.6206 105.437 27.8956 107.675 27.8956C109.061 27.8956 110.26 27.7824 111.273 27.5559C112.285 27.3294 113.138 27.0221 113.831 26.6338C114.524 26.2132 115.057 25.7603 115.43 25.275L116.069 24.45H105.997L108.555 17.6559H133.017L125.502 35.5147H113.671L116.709 27.2162L118.228 28.1868C117.322 29.8691 116.123 31.2926 114.63 32.4574C113.191 33.6221 111.379 34.5118 109.194 35.1265C107.009 35.7088 104.371 36 101.28 36Z" stroke="color" stroke-linejoin="round" mask="url(#path-1-outside-1_96_65006)"/>
<mask id="path-2-outside-2_96_65006" maskUnits="userSpaceOnUse" x="50.3906" y="0.485352" width="37" height="39" fill="black">
<rect fill="white" x="50.3906" y="0.485352" width="37" height="39"/>
<path d="M84.2481 3.48535L72.017 35.5148H53.3906L65.6217 3.48535H84.2481Z"/>
</mask>
<path d="M84.2481 3.48535L72.017 35.5148H53.3906L65.6217 3.48535H84.2481Z" fill="currentColor"/>
<path d="M84.2481 3.48535L72.017 35.5148H53.3906L65.6217 3.48535H84.2481Z" stroke="color" stroke-linejoin="round" mask="url(#path-2-outside-2_96_65006)"/>
<mask id="path-3-outside-3_96_65006" maskUnits="userSpaceOnUse" x="0" y="0.485352" width="64" height="39" fill="black">
<rect fill="white" y="0.485352" width="64" height="39"/>
<path d="M3 35.5148L15.2311 3.48535H43.5303C48.7531 3.48535 52.8835 4.16476 55.9213 5.52359C59.0123 6.85006 60.5578 8.71035 60.5578 11.1045C60.5578 12.8192 59.9183 14.2751 58.6392 15.4721C57.4135 16.6692 55.788 17.6236 53.7628 18.3354C51.7376 19.0148 49.4993 19.4677 47.0478 19.6942V19.7427C50.1921 19.8721 52.7502 20.4868 54.7221 21.5868C56.7473 22.6868 57.7599 24.1427 57.7599 25.9545C57.7599 28.1221 56.8805 29.9177 55.1218 31.3412C53.4164 32.7324 50.9916 33.7839 47.8472 34.4956C44.7028 35.1751 41.0522 35.5148 36.8952 35.5148H3ZM23.6249 28.1383H32.978C34.8433 28.1383 36.3089 27.9442 37.3748 27.5559C38.494 27.1353 39.0536 26.4721 39.0536 25.5662C39.0536 25.1133 38.8671 24.7412 38.494 24.4501C38.1742 24.1265 37.6679 23.8839 36.9751 23.7221C36.3356 23.5603 35.5095 23.4795 34.4969 23.4795H25.4635L23.6249 28.1383ZM28.3415 15.9089H35.6961C36.9751 15.9089 38.041 15.8118 38.8937 15.6177C39.7997 15.3912 40.4659 15.0839 40.8922 14.6956C41.3719 14.3074 41.6118 13.8545 41.6118 13.3368C41.6118 12.6574 41.212 12.1398 40.4126 11.7839C39.6665 11.428 38.6006 11.2501 37.215 11.2501H30.1002L28.3415 15.9089Z"/>
</mask>
<path d="M3 35.5148L15.2311 3.48535H43.5303C48.7531 3.48535 52.8835 4.16476 55.9213 5.52359C59.0123 6.85006 60.5578 8.71035 60.5578 11.1045C60.5578 12.8192 59.9183 14.2751 58.6392 15.4721C57.4135 16.6692 55.788 17.6236 53.7628 18.3354C51.7376 19.0148 49.4993 19.4677 47.0478 19.6942V19.7427C50.1921 19.8721 52.7502 20.4868 54.7221 21.5868C56.7473 22.6868 57.7599 24.1427 57.7599 25.9545C57.7599 28.1221 56.8805 29.9177 55.1218 31.3412C53.4164 32.7324 50.9916 33.7839 47.8472 34.4956C44.7028 35.1751 41.0522 35.5148 36.8952 35.5148H3ZM23.6249 28.1383H32.978C34.8433 28.1383 36.3089 27.9442 37.3748 27.5559C38.494 27.1353 39.0536 26.4721 39.0536 25.5662C39.0536 25.1133 38.8671 24.7412 38.494 24.4501C38.1742 24.1265 37.6679 23.8839 36.9751 23.7221C36.3356 23.5603 35.5095 23.4795 34.4969 23.4795H25.4635L23.6249 28.1383ZM28.3415 15.9089H35.6961C36.9751 15.9089 38.041 15.8118 38.8937 15.6177C39.7997 15.3912 40.4659 15.0839 40.8922 14.6956C41.3719 14.3074 41.6118 13.8545 41.6118 13.3368C41.6118 12.6574 41.212 12.1398 40.4126 11.7839C39.6665 11.428 38.6006 11.2501 37.215 11.2501H30.1002L28.3415 15.9089Z" fill="currentColor"/>
<path d="M3 35.5148L15.2311 3.48535H43.5303C48.7531 3.48535 52.8835 4.16476 55.9213 5.52359C59.0123 6.85006 60.5578 8.71035 60.5578 11.1045C60.5578 12.8192 59.9183 14.2751 58.6392 15.4721C57.4135 16.6692 55.788 17.6236 53.7628 18.3354C51.7376 19.0148 49.4993 19.4677 47.0478 19.6942V19.7427C50.1921 19.8721 52.7502 20.4868 54.7221 21.5868C56.7473 22.6868 57.7599 24.1427 57.7599 25.9545C57.7599 28.1221 56.8805 29.9177 55.1218 31.3412C53.4164 32.7324 50.9916 33.7839 47.8472 34.4956C44.7028 35.1751 41.0522 35.5148 36.8952 35.5148H3ZM23.6249 28.1383H32.978C34.8433 28.1383 36.3089 27.9442 37.3748 27.5559C38.494 27.1353 39.0536 26.4721 39.0536 25.5662C39.0536 25.1133 38.8671 24.7412 38.494 24.4501C38.1742 24.1265 37.6679 23.8839 36.9751 23.7221C36.3356 23.5603 35.5095 23.4795 34.4969 23.4795H25.4635L23.6249 28.1383ZM28.3415 15.9089H35.6961C36.9751 15.9089 38.041 15.8118 38.8937 15.6177C39.7997 15.3912 40.4659 15.0839 40.8922 14.6956C41.3719 14.3074 41.6118 13.8545 41.6118 13.3368C41.6118 12.6574 41.212 12.1398 40.4126 11.7839C39.6665 11.428 38.6006 11.2501 37.215 11.2501H30.1002L28.3415 15.9089Z" stroke="color" stroke-linejoin="round" mask="url(#path-3-outside-3_96_65006)"/>
</svg>
