<svg width="100" height="257" viewBox="0 0 100 257" fill="none" xmlns="http://www.w3.org/2000/svg">
<path d="M3.40634 252.403C3.08445 252.861 3.04466 253.46 3.30316 253.957C3.56166 254.454 4.0754 254.766 4.63543 254.766H72.2216C72.7074 254.766 73.1629 254.531 73.4438 254.135L78.264 247.339C78.5885 246.882 78.6303 246.281 78.3723 245.782C78.1144 245.284 77.5998 244.971 77.0386 244.971H40.456L40.5259 244.871H70.4005C70.8929 244.871 71.3536 244.629 71.6333 244.224L75.9714 237.945C76.2884 237.486 76.3243 236.889 76.0649 236.395C75.8054 235.901 75.2932 235.592 74.7354 235.592H46.9699L47.1517 235.333H85.1144C85.6002 235.333 86.0557 235.098 86.3366 234.702L91.1568 227.906C91.4813 227.448 91.5231 226.848 91.2652 226.349C91.0072 225.85 90.4926 225.537 89.9314 225.537H23.0694C22.5813 225.537 22.124 225.775 21.8435 226.174L3.40634 252.403Z" fill="currentColor" stroke="#151611" stroke-width="3" stroke-linejoin="round"/>
<path d="M16.7119 229.815L16.7158 229.816C22.6376 230.977 29.9434 231.549 38.6098 231.549C50.7327 231.549 60.2019 230.534 66.9313 228.441L66.9374 228.439C73.6826 226.309 78.6543 222.909 81.6278 218.128L81.6341 218.118L92.7189 199.969C93.0017 199.506 93.0121 198.927 92.7463 198.453C92.4805 197.98 91.9798 197.687 91.437 197.687H63.3163C62.7925 197.687 62.3068 197.96 62.0352 198.408L50.83 216.879C50.824 216.889 50.8182 216.899 50.8124 216.909C50.1017 218.144 49.0811 219.027 47.6957 219.581C46.2644 220.154 44.1116 220.488 41.1329 220.488C38.7969 220.488 36.9138 220.309 35.4549 219.978C34.0631 219.612 33.4061 219.175 33.1415 218.854C33.0547 218.736 33.0362 218.652 33.0361 218.567C33.036 218.456 33.0714 218.241 33.2586 217.898L43.9682 199.956C44.2448 199.493 44.2509 198.916 43.984 198.446C43.7171 197.977 43.2184 197.687 42.6784 197.687H14.4371C13.9155 197.687 13.4316 197.957 13.1592 198.402L2.91781 215.123L2.91779 215.123L2.91396 215.129C1.92074 216.769 1.39937 218.451 1.5618 220.127C1.72629 221.825 2.57116 223.303 3.90253 224.554L3.92182 224.572C6.5667 226.972 10.9236 228.664 16.7119 229.815Z" fill="currentColor" stroke="#151611" stroke-width="3" stroke-linejoin="round"/>
<path d="M63.5935 191.749C64.7978 191.706 65.9143 191.644 66.9436 191.563L66.9633 191.561C69.1093 191.419 70.9159 191.236 72.3905 191.015C72.8223 190.95 73.2612 191.077 73.5924 191.362C73.9237 191.647 74.1145 192.062 74.1149 192.498L74.122 199.086C74.1228 199.804 73.6147 200.421 72.9101 200.558C71.0768 200.915 68.8928 201.208 66.3671 201.44C63.8909 201.676 60.8642 201.791 57.2974 201.791C53.9593 201.791 50.6213 201.661 47.2833 201.399C43.9325 201.137 40.8509 200.713 38.0423 200.124M63.5935 191.749L38.0393 200.123C38.0403 200.123 38.0413 200.124 38.0423 200.124M63.5935 191.749C68.6214 190.948 72.942 189.846 76.5354 188.427C80.5101 186.89 83.6532 185.028 85.8617 182.788L85.869 182.781C88.1012 180.485 89.306 177.856 89.3028 174.932C89.2992 171.55 87.1914 168.886 83.7188 166.874C80.2866 164.886 75.6693 163.424 69.9475 162.432C64.2881 161.409 57.8408 160.902 50.6153 160.902C43.6397 160.902 37.331 161.307 31.6948 162.123L31.6917 162.124C26.1452 162.939 21.3653 164.11 17.3728 165.653L17.3728 165.653L17.3628 165.657C13.4629 167.197 10.3633 169.075 8.15881 171.341C5.9229 173.611 4.71806 176.226 4.72122 179.151C4.72485 182.506 6.83543 185.167 10.2966 187.203L10.2966 187.203L10.3052 187.208C13.7357 189.196 18.3519 190.672 24.0748 191.693L24.0748 191.693L24.0821 191.694C25.3436 191.913 26.6393 192.107 27.9693 192.277M63.5935 191.749L27.9693 192.277M38.0423 200.124C35.2973 199.56 32.9722 198.788 31.1112 197.777L31.1017 197.772L31.1017 197.772C29.2255 196.735 27.911 195.216 27.9087 193.144C27.9084 192.868 27.9302 192.577 27.9693 192.277M38.0423 200.124L27.9693 192.277M54.9208 179.461C54.9153 179.465 54.9098 179.47 54.9043 179.474C54.8982 179.479 54.8921 179.483 54.8861 179.488C53.7738 180.382 52.2978 181.154 50.4126 181.773C48.6747 182.341 46.5084 182.645 43.8801 182.645C41.7719 182.645 40.0715 182.506 38.7543 182.246C37.46 181.963 36.6499 181.587 36.1828 181.212C35.8563 180.895 35.7227 180.563 35.7223 180.141C35.7215 179.389 35.948 178.516 36.501 177.503L36.5081 177.489C37.035 176.501 37.8488 175.536 39.0001 174.608C40.2096 173.697 41.6979 172.939 43.4904 172.353L43.492 172.353C45.3151 171.754 47.5232 171.437 50.1439 171.437C52.3426 171.437 54.0264 171.593 55.238 171.872C55.2532 171.876 55.2685 171.879 55.2838 171.882C56.6226 172.147 57.345 172.518 57.6891 172.84C57.7191 172.868 57.7503 172.895 57.7826 172.921C58.1642 173.223 58.3013 173.53 58.3018 173.941C58.3026 174.695 58.0758 175.583 57.5196 176.629C57.0028 177.573 56.1607 178.524 54.9208 179.461Z" fill="currentColor" stroke="#151611" stroke-width="3" stroke-linejoin="round"/>
<path d="M71.5933 131.098C71.8605 130.634 71.8598 130.062 71.5913 129.598C71.3228 129.134 70.8274 128.849 70.2916 128.849H42.1709C41.6348 128.849 41.1398 129.135 40.8724 129.599L22.4415 161.609C22.1743 162.073 22.175 162.644 22.4435 163.108C22.712 163.572 23.2074 163.858 23.7432 163.858H51.8639C52.4 163.858 52.895 163.572 53.1624 163.108L71.5933 131.098Z" fill="currentColor" stroke="#151611" stroke-width="3" stroke-linejoin="round"/>
<path d="M85.7987 118.33C89.1861 116.531 91.296 114.047 91.2927 110.784C91.2907 108.857 90.3723 107.226 88.822 105.923C87.3109 104.654 85.159 103.653 82.4912 102.853C77.1395 101.249 69.9732 100.474 61.0579 100.474H21.4718C20.9512 100.474 20.468 100.744 20.1954 101.187L1.76068 131.161C1.47606 131.624 1.46423 132.205 1.72975 132.679L85.0922 117.006M85.7987 118.33C85.798 118.33 85.7974 118.331 85.7967 118.331L85.0922 117.006M85.7987 118.33C85.7995 118.33 85.8001 118.329 85.8009 118.329L85.0922 117.006M85.7987 118.33C82.8817 119.89 79.0234 121.061 74.2842 121.885M85.0922 117.006C82.147 118.582 78.0803 119.778 72.8922 120.595L74.2842 121.885M74.2842 121.885C73.7113 121.984 73.1256 122.079 72.527 122.168C72.4863 122.174 72.4454 122.181 72.4046 122.187M74.2842 121.885L83.9542 130.848C84.4069 131.268 84.5568 131.922 84.332 132.496C84.1072 133.07 83.5536 133.448 82.9366 133.448H55.0574C54.6504 133.448 54.2607 133.283 53.9778 132.99L45.1586 123.865H47.2436L55.0558 131.948H80.7297L81.916 133.048L82.9351 131.948L82.9336 130.448H81.3169L72.4046 122.187M72.3028 120.685C71.8701 120.751 71.4319 120.814 70.9882 120.874L72.4046 122.187" fill="currentColor" stroke="#151611" stroke-width="3" stroke-linejoin="round"/>
<path d="M1.7373 97.0203C1.47048 97.4845 1.47157 98.056 1.74016 98.5197C2.00875 98.9835 2.50408 99.2691 3.03972 99.2691H54.2121C60.5388 99.2691 66.1237 98.9266 70.9581 98.2341L70.968 98.2326C75.7891 97.509 79.6428 96.4234 82.435 94.9132C85.359 93.3429 87.2025 91.1304 87.199 88.2014C87.1956 85.3467 84.7582 83.5518 81.6202 82.4212C81.1871 82.2613 80.7383 82.1116 80.274 81.9718C83.3048 81.243 85.8384 80.2582 87.8187 78.9779C90.021 77.6069 91.4083 75.7352 91.4055 73.3399C91.4034 71.5751 90.5143 70.1127 89.0859 68.9741C87.6969 67.8669 85.7324 67.0021 83.3156 66.3142C78.5298 64.897 72.1323 64.2148 64.1878 64.2148H21.4637C20.9273 64.2148 20.4321 64.5013 20.1649 64.9661L1.7373 97.0203ZM54.0894 87.4496C55.0119 87.5924 55.5108 87.7799 55.7383 87.917C55.5156 88.0469 55.1455 88.2025 54.5659 88.3473C53.1252 88.6945 51.0503 88.8869 48.286 88.8869H36.8041L37.7919 87.2245H50.5772C52.0634 87.2245 53.2192 87.3039 54.0708 87.4466L54.0894 87.4496ZM59.5094 75.6121C59.4871 75.624 59.4651 75.6366 59.4435 75.6496C59.0482 75.8884 58.2725 76.158 56.9678 76.375C55.7823 76.5531 54.2576 76.648 52.375 76.648H43.8519L44.7967 74.9856H54.6661C56.7035 74.9856 58.1328 75.1626 59.0421 75.45L59.0697 75.4585C59.2499 75.5116 59.3945 75.5639 59.5094 75.612C59.5094 75.612 59.5094 75.6121 59.5094 75.6121Z" fill="currentColor" stroke="#151611" stroke-width="3" stroke-linejoin="round"/>
<path d="M3.86631 65.0704C3.37016 65.4689 3.17988 66.1373 3.39166 66.7379C3.60344 67.3385 4.17114 67.7404 4.80777 67.7404H33.5319C33.9056 67.7404 34.2657 67.6009 34.5417 67.3493L41.9502 60.5939H62.1503L62.4461 66.3163C62.4874 67.1142 63.1467 67.7404 63.9457 67.7404H90.3767C90.8267 67.7404 91.2528 67.5383 91.5373 67.1899C91.8219 66.8415 91.9348 66.3836 91.845 65.9425L84.5669 30.2099C84.4244 29.5105 83.8091 29.0078 83.0955 29.0078H49.3024C48.9611 29.0078 48.6301 29.1242 48.364 29.3379L3.86631 65.0704ZM53.834 49.7435L61.3149 42.7054L61.5361 49.7435H53.834Z" fill="currentColor" stroke="#151611" stroke-width="3" stroke-linejoin="round"/>
<path d="M92.1494 13.5526C92.7034 13.5526 93.2119 13.2473 93.4721 12.7585L98.2895 3.70582C98.5369 3.24092 98.5221 2.68002 98.2505 2.22823C97.9789 1.77644 97.4904 1.5 96.9635 1.5L31.5498 1.5C30.9938 1.5 30.4837 1.80755 30.2245 2.29912L11.7981 37.2391C11.5528 37.7041 11.5692 38.2638 11.8411 38.7142C12.113 39.1646 12.6008 39.44 13.1267 39.44H41.2474C41.805 39.44 42.3163 39.1306 42.5748 38.6368L48.4169 27.4757H77.8029C78.3569 27.4757 78.8654 27.1704 79.1256 26.6815L83.9431 17.6289C84.1905 17.164 84.1757 16.6031 83.9041 16.1513C83.6325 15.6995 83.1439 15.4231 82.617 15.4231L54.7955 15.4231L55.7667 13.5526L92.1494 13.5526Z" fill="currentColor" stroke="#151611" stroke-width="3" stroke-linejoin="round"/>
</svg>
