<svg width="615" height="104" viewBox="0 0 615 104" fill="none" xmlns="http://www.w3.org/2000/svg">
<mask id="path-1-outside-1_91_64992" maskUnits="userSpaceOnUse" x="500.09" y="0" width="115" height="98" fill="black">
<rect fill="white" x="500.09" width="115" height="98"/>
<path d="M554.238 70.3734H611L603.652 93.5837H504.09L532.195 4H574.996L554.238 70.3734Z"/>
</mask>
<path d="M554.238 70.3734H611L603.652 93.5837H504.09L532.195 4H574.996L554.238 70.3734Z" fill="currentColor"/>
<path d="M554.238 70.3734H611L603.652 93.5837H504.09L532.195 4H574.996L554.238 70.3734Z" stroke="color" stroke-linejoin="round" mask="url(#path-1-outside-1_91_64992)"/>
<mask id="path-2-outside-2_91_64992" maskUnits="userSpaceOnUse" x="432.594" y="0" width="102" height="99" fill="black">
<rect fill="white" x="432.594" width="102" height="99"/>
<path d="M436.594 94.1261L485.337 4H522.324L530.25 94.1261H501.321L500.925 76.1009H476.619L468.033 94.1261H436.594ZM486.13 56.3005H500.396L500 26.2584L486.13 56.3005Z"/>
</mask>
<path d="M436.594 94.1261L485.337 4H522.324L530.25 94.1261H501.321L500.925 76.1009H476.619L468.033 94.1261H436.594ZM486.13 56.3005H500.396L500 26.2584L486.13 56.3005Z" fill="currentColor"/>
<path d="M436.594 94.1261L485.337 4H522.324L530.25 94.1261H501.321L500.925 76.1009H476.619L468.033 94.1261H436.594ZM486.13 56.3005H500.396L500 26.2584L486.13 56.3005Z" stroke="color" stroke-linejoin="round" mask="url(#path-2-outside-2_91_64992)"/>
<mask id="path-3-outside-3_91_64992" maskUnits="userSpaceOnUse" x="382.578" y="0" width="101" height="99" fill="black">
<rect fill="white" x="382.578" width="101" height="99"/>
<path d="M479.351 4L431.051 94.1261H394.496L386.578 4H415.479L416.931 52.4769L417.194 70.0925L424.585 52.6135L448.339 4H479.351Z"/>
</mask>
<path d="M479.351 4L431.051 94.1261H394.496L386.578 4H415.479L416.931 52.4769L417.194 70.0925L424.585 52.6135L448.339 4H479.351Z" fill="currentColor"/>
<path d="M479.351 4L431.051 94.1261H394.496L386.578 4H415.479L416.931 52.4769L417.194 70.0925L424.585 52.6135L448.339 4H479.351Z" stroke="color" stroke-linejoin="round" mask="url(#path-3-outside-3_91_64992)"/>
<mask id="path-4-outside-4_91_64992" maskUnits="userSpaceOnUse" x="341.051" y="0" width="61" height="101" fill="black">
<rect fill="white" x="341.051" width="61" height="101"/>
<path d="M397.18 4L376.518 96.272H345.051L365.714 4H397.18Z"/>
</mask>
<path d="M397.18 4L376.518 96.272H345.051L365.714 4H397.18Z" fill="currentColor"/>
<path d="M397.18 4L376.518 96.272H345.051L365.714 4H397.18Z" stroke="color" stroke-linejoin="round" mask="url(#path-4-outside-4_91_64992)"/>
<mask id="path-5-outside-5_91_64992" maskUnits="userSpaceOnUse" x="265.949" y="0" width="100" height="99" fill="black">
<rect fill="white" x="265.949" width="100" height="99"/>
<path d="M360.955 4L355.649 27.3509H328.32L313.33 94.1261H282.419L297.41 27.3509H269.949L275.256 4H360.955Z"/>
</mask>
<path d="M360.955 4L355.649 27.3509H328.32L313.33 94.1261H282.419L297.41 27.3509H269.949L275.256 4H360.955Z" fill="currentColor"/>
<path d="M360.955 4L355.649 27.3509H328.32L313.33 94.1261H282.419L297.41 27.3509H269.949L275.256 4H360.955Z" stroke="color" stroke-linejoin="round" mask="url(#path-5-outside-5_91_64992)"/>
<mask id="path-6-outside-6_91_64992" maskUnits="userSpaceOnUse" x="192.617" y="0" width="100" height="104" fill="black">
<rect fill="white" x="192.617" width="100" height="104"/>
<path d="M242.496 99.1331C236.607 99.1331 230.85 98.4367 225.225 97.0438C219.688 95.5581 214.503 93.3295 209.669 90.358C204.835 87.3866 200.484 83.6258 196.617 79.0758L211.91 59.8541C214.371 62.8256 217.315 65.472 220.743 67.7935C224.171 70.1149 227.73 71.9721 231.422 73.365C235.113 74.665 238.585 75.315 241.837 75.315C243.507 75.315 244.781 75.1293 245.66 74.7579C246.627 74.2936 247.33 73.7364 247.769 73.0864C248.209 72.4364 248.429 71.6935 248.429 70.8578C248.429 69.8364 247.945 69.0007 246.978 68.3506C246.099 67.6078 244.605 66.8649 242.496 66.1221L230.235 61.5256C226.632 60.1327 223.204 58.322 219.952 56.0934C216.7 53.7719 214.063 50.8469 212.042 47.3183C210.02 43.7897 209.01 39.5646 209.01 34.6432C209.01 27.6788 210.68 21.968 214.019 17.5109C217.359 12.9608 221.886 9.57148 227.599 7.34289C233.311 5.1143 239.727 4 246.847 4C256.339 4 264.381 5.62501 270.972 8.87504C277.564 12.0322 283.409 16.2108 288.507 21.4109L272.291 40.0754C270.094 37.7539 267.633 35.711 264.908 33.9467C262.183 32.0896 259.327 30.6503 256.339 29.6288C253.35 28.6074 250.318 28.0967 247.242 28.0967C245.836 28.0967 244.649 28.236 243.682 28.5145C242.804 28.7931 242.144 29.211 241.705 29.7681C241.265 30.3253 241.046 31.0217 241.046 31.8574C241.046 32.9717 241.705 33.9467 243.023 34.7824C244.342 35.5253 246.099 36.3146 248.297 37.1503L259.503 41.3289C266.27 43.8361 271.456 47.1326 275.059 51.2183C278.751 55.2112 280.596 60.6434 280.596 67.5149C280.596 74.2007 278.927 79.9115 275.587 84.6472C272.247 89.383 267.721 93.0045 262.008 95.5116C256.295 97.9259 249.791 99.1331 242.496 99.1331Z"/>
</mask>
<path d="M242.496 99.1331C236.607 99.1331 230.85 98.4367 225.225 97.0438C219.688 95.5581 214.503 93.3295 209.669 90.358C204.835 87.3866 200.484 83.6258 196.617 79.0758L211.91 59.8541C214.371 62.8256 217.315 65.472 220.743 67.7935C224.171 70.1149 227.73 71.9721 231.422 73.365C235.113 74.665 238.585 75.315 241.837 75.315C243.507 75.315 244.781 75.1293 245.66 74.7579C246.627 74.2936 247.33 73.7364 247.769 73.0864C248.209 72.4364 248.429 71.6935 248.429 70.8578C248.429 69.8364 247.945 69.0007 246.978 68.3506C246.099 67.6078 244.605 66.8649 242.496 66.1221L230.235 61.5256C226.632 60.1327 223.204 58.322 219.952 56.0934C216.7 53.7719 214.063 50.8469 212.042 47.3183C210.02 43.7897 209.01 39.5646 209.01 34.6432C209.01 27.6788 210.68 21.968 214.019 17.5109C217.359 12.9608 221.886 9.57148 227.599 7.34289C233.311 5.1143 239.727 4 246.847 4C256.339 4 264.381 5.62501 270.972 8.87504C277.564 12.0322 283.409 16.2108 288.507 21.4109L272.291 40.0754C270.094 37.7539 267.633 35.711 264.908 33.9467C262.183 32.0896 259.327 30.6503 256.339 29.6288C253.35 28.6074 250.318 28.0967 247.242 28.0967C245.836 28.0967 244.649 28.236 243.682 28.5145C242.804 28.7931 242.144 29.211 241.705 29.7681C241.265 30.3253 241.046 31.0217 241.046 31.8574C241.046 32.9717 241.705 33.9467 243.023 34.7824C244.342 35.5253 246.099 36.3146 248.297 37.1503L259.503 41.3289C266.27 43.8361 271.456 47.1326 275.059 51.2183C278.751 55.2112 280.596 60.6434 280.596 67.5149C280.596 74.2007 278.927 79.9115 275.587 84.6472C272.247 89.383 267.721 93.0045 262.008 95.5116C256.295 97.9259 249.791 99.1331 242.496 99.1331Z" fill="currentColor"/>
<path d="M242.496 99.1331C236.607 99.1331 230.85 98.4367 225.225 97.0438C219.688 95.5581 214.503 93.3295 209.669 90.358C204.835 87.3866 200.484 83.6258 196.617 79.0758L211.91 59.8541C214.371 62.8256 217.315 65.472 220.743 67.7935C224.171 70.1149 227.73 71.9721 231.422 73.365C235.113 74.665 238.585 75.315 241.837 75.315C243.507 75.315 244.781 75.1293 245.66 74.7579C246.627 74.2936 247.33 73.7364 247.769 73.0864C248.209 72.4364 248.429 71.6935 248.429 70.8578C248.429 69.8364 247.945 69.0007 246.978 68.3506C246.099 67.6078 244.605 66.8649 242.496 66.1221L230.235 61.5256C226.632 60.1327 223.204 58.322 219.952 56.0934C216.7 53.7719 214.063 50.8469 212.042 47.3183C210.02 43.7897 209.01 39.5646 209.01 34.6432C209.01 27.6788 210.68 21.968 214.019 17.5109C217.359 12.9608 221.886 9.57148 227.599 7.34289C233.311 5.1143 239.727 4 246.847 4C256.339 4 264.381 5.62501 270.972 8.87504C277.564 12.0322 283.409 16.2108 288.507 21.4109L272.291 40.0754C270.094 37.7539 267.633 35.711 264.908 33.9467C262.183 32.0896 259.327 30.6503 256.339 29.6288C253.35 28.6074 250.318 28.0967 247.242 28.0967C245.836 28.0967 244.649 28.236 243.682 28.5145C242.804 28.7931 242.144 29.211 241.705 29.7681C241.265 30.3253 241.046 31.0217 241.046 31.8574C241.046 32.9717 241.705 33.9467 243.023 34.7824C244.342 35.5253 246.099 36.3146 248.297 37.1503L259.503 41.3289C266.27 43.8361 271.456 47.1326 275.059 51.2183C278.751 55.2112 280.596 60.6434 280.596 67.5149C280.596 74.2007 278.927 79.9115 275.587 84.6472C272.247 89.383 267.721 93.0045 262.008 95.5116C256.295 97.9259 249.791 99.1331 242.496 99.1331Z" stroke="color" stroke-linejoin="round" mask="url(#path-6-outside-6_91_64992)"/>
<mask id="path-7-outside-7_91_64992" maskUnits="userSpaceOnUse" x="124.582" y="0" width="102" height="101" fill="black">
<rect fill="white" x="124.582" width="102" height="101"/>
<path d="M128.582 96.9872L148.85 4H222.239L216.94 28.0922H174.417L171.9 39.6451H205.547L200.778 61.9057H167.131L164.746 72.8951H208.064L202.765 96.9872H128.582Z"/>
</mask>
<path d="M128.582 96.9872L148.85 4H222.239L216.94 28.0922H174.417L171.9 39.6451H205.547L200.778 61.9057H167.131L164.746 72.8951H208.064L202.765 96.9872H128.582Z" fill="currentColor"/>
<path d="M128.582 96.9872L148.85 4H222.239L216.94 28.0922H174.417L171.9 39.6451H205.547L200.778 61.9057H167.131L164.746 72.8951H208.064L202.765 96.9872H128.582Z" stroke="color" stroke-linejoin="round" mask="url(#path-7-outside-7_91_64992)"/>
<mask id="path-8-outside-8_91_64992" maskUnits="userSpaceOnUse" x="54.7812" y="0" width="116" height="101" fill="black">
<rect fill="white" x="54.7812" width="116" height="101"/>
<path d="M160.371 28.0922H112.445L109.188 41.054H148.118L141.914 65.1462H102.984L94.9191 96.9872H58.7812L82.5113 4H166.575L160.371 28.0922Z"/>
</mask>
<path d="M160.371 28.0922H112.445L109.188 41.054H148.118L141.914 65.1462H102.984L94.9191 96.9872H58.7812L82.5113 4H166.575L160.371 28.0922Z" fill="currentColor"/>
<path d="M160.371 28.0922H112.445L109.188 41.054H148.118L141.914 65.1462H102.984L94.9191 96.9872H58.7812L82.5113 4H166.575L160.371 28.0922Z" stroke="color" stroke-linejoin="round" mask="url(#path-8-outside-8_91_64992)"/>
<mask id="path-9-outside-9_91_64992" maskUnits="userSpaceOnUse" x="0" y="36.4678" width="94" height="43" fill="black">
<rect fill="white" y="36.4678" width="94" height="43"/>
<path d="M4 74.5571L22.503 40.4678H89.5006L84.6631 49.3H45.8433L43.5455 53.5354H74.2628L69.9092 61.6961H39.1919L37.0151 65.7249H76.5606L71.7232 74.5571H4Z"/>
</mask>
<path d="M4 74.5571L22.503 40.4678H89.5006L84.6631 49.3H45.8433L43.5455 53.5354H74.2628L69.9092 61.6961H39.1919L37.0151 65.7249H76.5606L71.7232 74.5571H4Z" fill="currentColor"/>
<path d="M4 74.5571L22.503 40.4678H89.5006L84.6631 49.3H45.8433L43.5455 53.5354H74.2628L69.9092 61.6961H39.1919L37.0151 65.7249H76.5606L71.7232 74.5571H4Z" stroke="color" stroke-linejoin="round" mask="url(#path-9-outside-9_91_64992)"/>
<mask id="path-10-outside-10_91_64992" maskUnits="userSpaceOnUse" x="7.95312" y="0" width="78" height="43" fill="black">
<rect fill="white" x="7.95312" width="78" height="43"/>
<path d="M44.5884 29.2571H81.5271L76.7454 38.0894H11.9531L30.2432 4H58.0967L44.5884 29.2571Z"/>
</mask>
<path d="M44.5884 29.2571H81.5271L76.7454 38.0894H11.9531L30.2432 4H58.0967L44.5884 29.2571Z" fill="currentColor"/>
<path d="M44.5884 29.2571H81.5271L76.7454 38.0894H11.9531L30.2432 4H58.0967L44.5884 29.2571Z" stroke="color" stroke-linejoin="round" mask="url(#path-10-outside-10_91_64992)"/>
</svg>
