<svg viewBox="0 0 230 24" fill="none" xmlns="http://www.w3.org/2000/svg">
<path fill-rule="evenodd" clip-rule="evenodd" d="M198.637 10.2352H196.318V5.8379L194.637 7.60225H194.461L192.82 5.87862V10.2352H190.502V0.979156H190.841L194.569 4.75215L198.298 0.979156H198.637V10.2352ZM221.193 22.3867H223.593L221.152 13.1306H218.603L216.163 22.3867H218.508L218.834 20.7852H220.854L221.193 22.3867ZM219.837 15.5736L220.529 18.953H219.159L219.837 15.5736ZM224.742 22.3866H230.003V20.4322H227.06V13.2391H224.742V22.3866ZM217.761 13.2391L211.728 22.468H209.029L202.996 13.2391H206.182L210.385 20.0658L214.629 13.2391H217.761ZM199.566 22.3866H201.885V13.2391H199.566V22.3866ZM198.478 15.1934H196.62V22.3866H194.301V15.1934H192.444V13.2391H198.478V15.1934ZM187.734 22.4815C190.419 22.4815 192.127 21.4636 192.127 19.5499C192.127 18.1927 191.327 17.4599 190.161 16.8084L190.028 16.7304C189.262 16.2811 188.873 16.0531 188.873 15.6548C188.873 15.3019 189.253 15.0712 190.419 15.0712C190.866 15.0712 191.327 15.1119 191.734 15.1798L191.829 13.2254C191.381 13.1711 190.947 13.144 190.514 13.144C187.897 13.144 186.541 14.2433 186.541 15.8448C186.541 17.0934 187.354 17.8534 188.425 18.4506C189.429 19.0342 189.795 19.3192 189.795 19.7671C189.795 20.2014 189.334 20.5678 187.937 20.5678C187.571 20.5678 187.083 20.5135 186.69 20.4457L186.595 22.4408C187.002 22.4679 187.368 22.4815 187.734 22.4815ZM185.529 22.3866H180.038V13.2391H185.529V15.0984H182.356V16.5914H185.529V18.3557H182.356V20.5272H185.529V22.3866ZM170.207 18.6814H178.56V16.7135H170.207V15.1799H178.56V13.2391H167.658V22.3866H170.207V18.6814ZM184.144 10.2346H189.405V8.28028H186.462V1.08716H184.144V10.2346ZM182.356 10.2346H180.038V1.08716H182.356V10.2346ZM170.207 6.5295H178.56V4.56157H170.207V3.02794H178.56V1.08716H167.658V10.2346H170.207V6.5295Z" fill="currentColor"/>
<path fill-rule="evenodd" clip-rule="evenodd" d="M6.14752 6.50821C6.14752 7.85656 7.89527 8.31605 13.2315 8.74541C21.8773 9.40452 26.588 10.4214 26.588 15.5851C26.588 21.276 20.9087 23.3475 12.5774 23.3475C8.08112 23.3475 3.80646 22.888 0 21.5057L1.27954 16.8355C4.33543 17.988 8.20622 18.7111 12.606 18.7111C18.3175 18.7111 20.6263 17.89 20.6263 16.3421C20.6263 14.7941 18.5641 14.4326 12.9169 13.9731C4.39976 13.2838 0.0929276 11.8715 0.0929276 6.93757C0.0929276 2.36902 5.30402 0 14.1035 0C18.3496 0 22.8423 0.429361 25.9018 1.73628L24.6544 6.40652C21.7522 5.19 18.0994 4.63258 14.075 4.63258C8.98896 4.63258 6.14752 5.15987 6.14752 6.50821ZM34.0226 0.592111L36.6746 9.14167L39.5125 0.592111H45.131L36.5817 22.7569H30.6522L33.7402 15.454L28.3755 0.592111H34.0226ZM55.2491 9.23858L54.9403 9.04782C53.1789 7.96075 52.2861 7.40974 52.2861 6.44396C52.2861 5.58901 53.1582 5.03159 55.8424 5.03159C56.8717 5.03159 57.9332 5.12951 58.8697 5.29523L59.0877 0.56096C58.0583 0.429139 57.0576 0.365111 56.0604 0.365111C50.038 0.365111 46.9178 3.0279 46.9178 6.90722C46.9178 9.93158 48.7906 11.7733 51.2568 13.2196C53.5656 14.632 54.4091 15.325 54.4091 16.4097C54.4091 17.4944 53.3476 18.3493 50.1345 18.3493C49.291 18.3493 48.1687 18.2175 47.2644 18.0518L47.0464 22.884C47.9828 22.948 48.8263 22.9819 49.6663 22.9819C55.8459 22.9819 59.7775 20.515 59.7775 15.8786C59.7775 12.5906 57.9368 10.8129 55.2526 9.23481L55.2491 9.23858ZM65.8389 5.32638H61.5643V0.592111H75.4534V5.32638H71.1751V22.7569H65.8389V5.32638ZM77.2392 22.7569H89.8738V18.2524H82.5718V12.9909H89.8738V8.71608H82.5718V5.09664H89.8738V0.592111H77.2392V22.7569ZM131.973 0.71143H147.295C154.815 0.71143 161.81 3.37422 161.81 11.5622C161.81 19.7502 154.883 22.8725 147.331 22.8725H137.223V22.8989H105.21V22.8725H105.049V12.2176L101.178 16.4923H100.771L96.9963 12.3155V22.8725H91.6601V0.447787H92.4393L101.021 9.58866L109.602 0.447787H110.381V18.6429H131.973V0.71143ZM137.838 18.142H146.327V18.1382C152.195 18.1382 155.752 15.7993 155.752 11.6262C155.752 7.45315 152.192 5.4457 146.327 5.4457H137.838V18.142Z" fill="currentColor"/>
</svg>
