<svg viewBox="0 0 225 66" fill="none" xmlns="http://www.w3.org/2000/svg" style="overflow: visible;" >
<path d="M169.08 51.4685L169.085 51.4768C171.074 55.4307 173.801 58.5349 177.273 60.7369C180.752 62.9428 184.686 64.0344 189.031 64.0344C192.309 64.0344 195.2 63.4819 197.651 62.3122C197.661 62.3076 197.67 62.3029 197.68 62.2981C198.567 61.8515 199.398 61.332 200.173 60.7407L200.046 61.3584C199.956 61.7998 200.069 62.2583 200.354 62.6073C200.639 62.9564 201.065 63.1588 201.516 63.1588H213.437C214.133 63.1588 214.738 62.6798 214.897 62.002L222.468 29.7834C222.573 29.3374 222.469 28.8679 222.184 28.5088C221.899 28.1497 221.466 27.9403 221.008 27.9403H196.361C195.651 27.9403 195.039 28.4373 194.893 29.1316L192.315 41.3886C192.222 41.831 192.334 42.2916 192.619 42.6426C192.903 42.9935 193.331 43.1973 193.783 43.1973H201.613C201.344 43.68 201.006 44.1472 200.594 44.5989C200.058 45.1304 199.383 45.5711 198.542 45.9081C197.74 46.2293 196.729 46.4134 195.475 46.4134C193.429 46.4134 191.977 45.9633 190.97 45.2188C189.912 44.4372 189.112 43.3132 188.604 41.7571C188.074 40.131 187.792 38.1928 187.792 35.919C187.792 33.4037 188.075 31.1462 188.625 29.1356C189.182 27.101 189.927 25.4203 190.837 24.0649C191.815 22.6307 192.875 21.6002 193.999 20.9159L194.016 20.9054C195.188 20.1705 196.391 19.8213 197.65 19.8213C199.519 19.8213 200.561 20.3961 201.167 21.2745C201.174 21.285 201.182 21.2954 201.189 21.3057C201.991 22.4064 202.432 23.8041 202.432 25.588C202.432 26.0275 202.625 26.4449 202.96 26.7299C203.294 27.0149 203.737 27.1388 204.171 27.069L221.569 24.2673C222.341 24.143 222.888 23.4464 222.826 22.6668C222.485 18.4056 221.2 14.6426 218.938 11.4246C216.743 8.22516 213.824 5.77995 210.214 4.09618C206.597 2.35118 202.478 1.5 197.891 1.5C192.876 1.5 188.358 2.40931 184.37 4.2668C180.411 6.11127 177.061 8.7014 174.338 12.0312C171.634 15.3373 169.588 19.1532 168.192 23.4623C166.797 27.7697 166.105 32.3921 166.105 37.3198C166.105 42.694 167.078 47.4259 169.08 51.4685Z" fill="currentColor" paint-order="stroke" stroke="color" />
<path d="M106.041 61.3445C105.946 61.7873 106.057 62.249 106.342 62.6009C106.627 62.9529 107.055 63.1574 107.508 63.1574H123.778C124.486 63.1574 125.097 62.6631 125.245 61.9713L129.836 40.5214C129.841 40.5021 129.844 40.4826 129.848 40.463L130.944 34.1205L131.343 35.7487C131.344 35.7539 131.345 35.7591 131.347 35.7643C131.35 35.7775 131.353 35.7906 131.357 35.8036L138.848 62.0688C139.032 62.7131 139.621 63.1574 140.291 63.1574H159.541C160.249 63.1574 160.861 62.6625 161.008 61.9702L173.332 4.1869C173.427 3.74412 173.316 3.28238 173.031 2.93044C172.746 2.57851 172.318 2.37402 171.865 2.37402H155.594C154.887 2.37402 154.276 2.8683 154.128 3.56007L149.537 25.01C149.533 25.0263 149.53 25.0427 149.527 25.0591L148.261 32.1145L147.955 30.7695C147.952 30.753 147.948 30.7366 147.943 30.7203L140.775 3.49212C140.601 2.83323 140.005 2.37402 139.324 2.37402H119.832C119.124 2.37402 118.512 2.86887 118.365 3.56115L106.041 61.3445Z" fill="currentColor" stroke="color" paint-order="stroke" />
<path d="M49.838 60.9713C49.5988 61.4363 49.619 61.9923 49.8914 62.4387C50.1638 62.885 50.649 63.1574 51.1719 63.1574H70.3421C70.931 63.1574 71.4654 62.8128 71.7084 62.2764L76.5448 51.6007H88.9294L89.1403 61.6887C89.1574 62.5048 89.8238 63.1574 90.64 63.1574H108.28C108.699 63.1574 109.1 62.9817 109.384 62.6729C109.668 62.3641 109.81 61.9505 109.775 61.5324L104.942 3.74901C104.877 2.97176 104.227 2.37402 103.447 2.37402H80.8937C80.3318 2.37402 79.8169 2.68816 79.5599 3.18792L49.838 60.9713ZM83.6739 35.9059L88.4216 25.0936L88.5572 35.9059H83.6739Z" fill="currentColor" stroke="color" paint-order="stroke" />
<path d="M1.53299 61.3445C1.43856 61.7873 1.54916 62.249 1.83396 62.601C2.11875 62.9529 2.54727 63.1574 3 63.1574H37.152C41.4838 63.1574 45.3524 62.5238 48.7282 61.2178L48.7504 61.209C52.1559 59.8287 54.848 57.759 56.7529 54.9777C58.736 52.1025 59.6748 48.5463 59.6748 44.4099C59.6748 40.8053 58.5368 37.7705 56.1669 35.4619C55.1644 34.4622 54.0345 33.6639 52.7869 33.0619C53.5194 32.7348 54.2306 32.3644 54.9198 31.9503C54.9287 31.945 54.9376 31.9396 54.9463 31.934C57.1981 30.517 59.0037 28.6162 60.3561 26.2556C61.8073 23.8181 62.4939 20.9161 62.4939 17.6195C62.4939 12.8931 60.7645 9.0784 57.2482 6.37097C53.8441 3.65002 49.3179 2.37402 43.8374 2.37402H15.3237C14.6159 2.37402 14.0043 2.86887 13.8567 3.56115L1.53299 61.3445ZM37.4497 42.4207C37.4779 42.4719 37.5091 42.5213 37.5431 42.5687C37.6936 42.7791 37.8268 43.122 37.8268 43.7095C37.8268 44.9545 37.4274 45.6272 36.8066 46.0487C36.0648 46.5289 34.9146 46.8497 33.2052 46.8497H25.6478L26.8391 41.4448H34.7356C35.6296 41.4448 36.23 41.5752 36.6137 41.749C36.6172 41.7506 36.6207 41.7522 36.6242 41.7537C36.6341 41.7581 36.644 41.7624 36.654 41.7665C37.0842 41.9464 37.3129 42.1729 37.4497 42.4207ZM39.9447 23.2463C39.9295 23.2685 39.9148 23.291 39.9007 23.314C39.6633 23.701 39.2599 24.0718 38.5764 24.3819C37.9541 24.6309 37.0944 24.787 35.9438 24.787H30.3827L31.5222 19.3821H37.4742C38.6588 19.3821 39.335 19.6554 39.7219 19.9858C39.7348 19.9968 39.7479 20.0076 39.7611 20.0181C40.1402 20.3203 40.4043 20.781 40.4043 21.6468C40.4043 22.3074 40.2384 22.8208 39.9447 23.2463Z" fill="currentColor" stroke="color" paint-order="stroke"/>
</svg>
