<svg width="100" height="59" viewBox="0 0 100 59" fill="none" xmlns="http://www.w3.org/2000/svg">
<path d="M39.1147 54.7623C38.8576 55.227 38.8654 55.7929 39.1351 56.2504C39.4049 56.7079 39.8964 56.9887 40.4275 56.9887H59.165C59.7386 56.9887 60.2619 56.6616 60.5132 56.146L65.2181 46.491L77.3001 46.491L77.5049 55.5224C77.5234 56.3375 78.1895 56.9887 79.0048 56.9887H96.2464C96.6677 56.9887 97.0694 56.8116 97.3535 56.5007C97.6377 56.1898 97.7779 55.7738 97.7401 55.3542L93.0071 2.86555C92.9374 2.09235 92.2893 1.5 91.5129 1.5L69.4688 1.5C68.9232 1.5 68.4206 1.79626 68.1565 2.27363L39.1147 54.7623ZM72.3142 31.9593L76.799 22.4637L76.9289 31.9593H72.3142Z" fill="currentColor" stroke="color" stroke-width="3" stroke-linejoin="round"/>
<path d="M48.8244 40.3893H26.379L34.8517 3.3345C34.9535 2.88938 34.847 2.42212 34.5623 2.06505C34.2777 1.70799 33.8459 1.5 33.3893 1.5L15.0454 1.5C14.3462 1.5 13.7398 1.98304 13.5835 2.66449L1.54362 55.1532C1.4415 55.5984 1.54782 56.0659 1.83246 56.4232C2.11709 56.7805 2.54902 56.9887 3.00582 56.9887L45.677 56.9887C46.3751 56.9887 46.9808 56.5071 47.1382 55.8271L50.2859 42.2277C50.3891 41.7822 50.2833 41.314 49.9987 40.956C49.7141 40.598 49.2817 40.3893 48.8244 40.3893Z" fill="currentColor" stroke="color" stroke-width="3" stroke-linejoin="round"/>
</svg>
