<svg width="225" height="127" viewBox="0 0 225 127" fill="none" xmlns="http://www.w3.org/2000/svg">
<path d="M156.444 85.6491L156.458 85.6542C159.76 86.8943 163.449 87.5 167.503 87.5C171.442 87.5 175.016 87.0045 178.207 85.989C181.426 84.9787 184.184 83.5192 186.446 81.586C188.738 79.6645 190.496 77.3776 191.701 74.732L191.704 74.7248C192.908 72.0442 193.5 69.1216 193.5 65.9779C193.5 62.5204 192.52 59.4876 190.511 56.963C188.543 54.4901 185.866 52.6472 182.552 51.4011C179.287 50.1221 175.593 49.5 171.497 49.5C167.556 49.5 163.962 49.9959 160.73 51.01L160.73 51.01L160.724 51.0119C157.546 52.0236 154.793 53.483 152.494 55.4089L152.482 55.419C150.231 57.3444 148.499 59.6492 147.297 62.3231C146.091 64.9728 145.5 67.8801 145.5 71.0221C145.5 74.4497 146.482 77.4765 148.482 80.0283L148.482 80.0283L148.489 80.037C150.456 82.5087 153.132 84.3684 156.444 85.6491ZM173.079 72.0417C173.072 72.053 173.066 72.0645 173.059 72.076C172.452 73.1324 171.686 73.9794 170.762 74.6374C169.988 75.1851 169.017 75.4926 167.769 75.4926C166.718 75.4926 165.944 75.3428 165.39 75.1102C164.88 74.8642 164.538 74.5394 164.306 74.1349C164.086 73.6733 163.944 73.0478 163.944 72.2059C163.944 71.0762 164.102 69.8618 164.431 68.5582L164.431 68.5582L164.433 68.55C164.754 67.2462 165.232 66.0453 165.864 64.9414C166.522 63.8691 167.294 63.0366 168.171 62.415L168.173 62.4135C169.001 61.8243 169.998 61.5074 171.231 61.5074C172.342 61.5074 173.084 61.6793 173.555 61.915C173.581 61.928 173.608 61.9403 173.634 61.9518C174.134 62.1664 174.428 62.4594 174.612 62.8321C174.627 62.8631 174.643 62.8937 174.661 62.9236C174.889 63.3158 175.056 63.9085 175.056 64.7941C175.056 65.9233 174.898 67.1559 174.568 68.4972C174.25 69.7567 173.754 70.9366 173.079 72.0417Z" fill="currentColor" stroke="#0C0706" stroke-width="3" stroke-linejoin="round"/>
<path d="M97.5239 94.5512C97.4448 94.9887 97.5638 95.4387 97.8488 95.7798C98.1338 96.121 98.5555 96.3182 99 96.3182H109.035C109.761 96.3182 110.383 95.7988 110.512 95.0847L113.123 80.6226L114.214 94.9322C114.273 95.7141 114.925 96.3182 115.709 96.3182H124.36C124.968 96.3182 125.515 95.9517 125.747 95.3901L131.993 80.2457L129.41 94.5516C129.331 94.989 129.45 95.4389 129.735 95.78C130.02 96.1211 130.441 96.3182 130.886 96.3182H140.921C141.647 96.3182 142.268 95.799 142.397 95.0852L149.961 53.267C150.04 52.8295 149.921 52.3795 149.636 52.0383C149.351 51.6972 148.929 51.5 148.485 51.5H132.468C131.853 51.5 131.301 51.8748 131.074 52.4457L124.548 68.8562C124.546 68.862 124.544 68.8678 124.542 68.8735C124.539 68.8802 124.537 68.8868 124.534 68.8935L123.258 72.3691L123.19 69.4392C123.19 69.4193 123.189 69.3994 123.188 69.3795L122.15 52.9057C122.1 52.1154 121.445 51.5 120.653 51.5H106.564C105.838 51.5 105.217 52.0192 105.088 52.733L97.5239 94.5512Z" fill="currentColor" stroke="#0C0706" stroke-width="3" stroke-linejoin="round"/>
<path d="M53.5559 97.5944C53.4289 98.0464 53.5209 98.5318 53.8045 98.906C54.0881 99.2802 54.5305 99.5 55 99.5H89.8515C90.5224 99.5 91.1117 99.0545 91.2947 98.409L93.784 89.6247C93.9122 89.1724 93.8209 88.6862 93.5374 88.3112C93.2539 87.9362 92.811 87.7158 92.3409 87.7158H73.967L74.2485 86.7089H88.9179C89.5927 86.7089 90.1843 86.2584 90.3639 85.608L92.6043 77.4916C92.729 77.0402 92.6356 76.5564 92.3519 76.1838C92.0682 75.8112 91.6267 75.5925 91.1584 75.5925H77.3298L77.6701 74.3801H96.5106C97.1815 74.3801 97.7708 73.9346 97.9538 73.2891L100.443 64.5049C100.571 64.0526 100.48 63.5663 100.197 63.1913C99.913 62.8163 99.4701 62.5959 99 62.5959H87.7179L95.797 54.0292C96.2078 53.5936 96.3202 52.9555 96.0831 52.4057C95.8459 51.856 95.3045 51.5 94.7058 51.5H82.2588C81.7707 51.5 81.3131 51.7375 81.0321 52.1368L74.9953 60.7155C74.6731 61.1735 74.6327 61.7728 74.8907 62.2698C74.9531 62.3899 75.0303 62.4992 75.1195 62.5959H64.5219C63.8497 62.5959 63.2596 63.0431 63.0778 63.6903L53.5559 97.5944Z" fill="currentColor" stroke="#0C0706" stroke-width="3" stroke-linejoin="round"/>
<path d="M1.51202 116.81C1.45758 117.238 1.58956 117.668 1.87432 117.991C2.15909 118.315 2.56914 118.5 3 118.5H15.1678C15.9231 118.5 16.5606 117.938 16.6559 117.189L19.8327 92.2074C19.8341 92.196 19.8354 92.1846 19.8366 92.1732L20.2247 88.4373L21.7619 117.08C21.8046 117.876 22.4626 118.5 23.2597 118.5H33.7492C34.4165 118.5 35.0036 118.059 35.1897 117.418L43.9144 87.3792L43.3501 91.829L43.3501 91.8295L40.1733 116.811C40.119 117.238 40.251 117.668 40.5358 117.992C40.8205 118.315 41.2305 118.5 41.6613 118.5H53.8292C54.5843 118.5 55.2217 117.939 55.3171 117.19L64.488 45.1895C64.5424 44.7621 64.4104 44.3319 64.1257 44.0086C63.8409 43.6853 63.4309 43.5 63 43.5H43.5794C42.9068 43.5 42.3164 43.9478 42.135 44.5955L34.2229 72.8501C34.2202 72.8597 34.2176 72.8694 34.2151 72.879L32.1356 80.9217L32.0123 73.3393C32.0121 73.3252 32.0116 73.3112 32.011 73.2971L30.7523 44.9335C30.7167 44.1317 30.0563 43.5 29.2537 43.5H12.1708C11.4157 43.5 10.7783 44.0614 10.6829 44.8105L1.51202 116.81Z" fill="currentColor" stroke="#0C0706" stroke-width="3" stroke-linejoin="round"/>
<path d="M164.077 113.68C163.981 114.123 164.09 114.587 164.375 114.94C164.66 115.294 165.089 115.499 165.543 115.499H175.268C175.974 115.499 176.584 115.007 176.734 114.317L178.554 105.918H179.583L182.506 114.483C182.714 115.091 183.284 115.499 183.926 115.499H193.778C194.272 115.499 194.734 115.256 195.014 114.85C195.294 114.444 195.356 113.926 195.18 113.465L191.468 103.72C193.255 102.808 194.71 101.531 195.796 99.889C197.104 97.9247 197.71 95.5443 197.71 92.8386C197.71 89.6946 196.664 87.0791 194.45 85.2013C192.285 83.3641 189.43 82.5293 186.059 82.5293H172.069C171.363 82.5293 170.753 83.0209 170.603 83.7102L164.077 113.68ZM182.476 95.9703H180.71L181.34 93.0671H183.542C184.122 93.0671 184.506 93.2021 184.778 93.3909C184.803 93.4076 184.827 93.4236 184.852 93.4389C184.889 93.461 184.913 93.483 184.94 93.5435C184.976 93.6217 185.028 93.7926 185.028 94.11C185.028 94.5054 184.931 94.8026 184.766 95.0521C184.589 95.318 184.344 95.5332 183.986 95.6969C183.627 95.8604 183.139 95.9703 182.476 95.9703Z" fill="currentColor" stroke="#0C0706" stroke-width="3" stroke-linejoin="round"/>
<path d="M167.902 84.2569C167.978 83.8207 167.857 83.3733 167.572 83.0344C167.287 82.6956 166.867 82.5 166.424 82.5H155.907C155.177 82.5 154.554 83.0246 154.429 83.7431L147.522 123.47C147.446 123.907 147.567 124.354 147.852 124.693C148.137 125.032 148.557 125.227 149 125.227H159.518C160.247 125.227 160.871 124.703 160.996 123.984L167.902 84.2569Z" fill="currentColor" stroke="#0C0706" stroke-width="3" stroke-linejoin="round"/>
<path d="M191.266 120.628C191.162 121.074 191.267 121.543 191.552 121.901C191.836 122.26 192.269 122.469 192.727 122.469H215.913C216.609 122.469 217.214 121.99 217.373 121.312L219.029 114.27C219.134 113.824 219.029 113.354 218.745 112.995C218.46 112.636 218.027 112.426 217.569 112.426H205.918L205.967 112.214H215.292C215.991 112.214 216.598 111.731 216.754 111.049L218.244 104.542C218.346 104.097 218.24 103.629 217.955 103.272C217.671 102.915 217.239 102.707 216.782 102.707H208.155L208.243 102.33H220.343C221.039 102.33 221.644 101.851 221.803 101.173L223.459 94.1305C223.564 93.6844 223.46 93.2149 223.175 92.8557C222.891 92.4965 222.458 92.2871 221.999 92.2871H199.061C198.364 92.2871 197.759 92.7676 197.601 93.4467L191.266 120.628Z" fill="currentColor" stroke="#0C0706" stroke-width="3" stroke-linejoin="round"/>
<path d="M95.6301 41.1631C95.3209 41.6231 95.2906 42.2161 95.5511 42.7052C95.8117 43.1944 96.3208 43.5 96.875 43.5H113.785C114.315 43.5 114.806 43.2203 115.076 42.7642L119.258 35.7H130.017L130.19 42.041C130.213 42.8531 130.877 43.5 131.69 43.5H147.25C147.676 43.5 148.082 43.3187 148.367 43.0014C148.651 42.6841 148.787 42.2607 148.741 41.837L144.478 2.83701C144.395 2.07619 143.752 1.5 142.987 1.5H123.093C122.593 1.5 122.127 1.74862 121.848 2.16314L95.6301 41.1631ZM126.109 24.1318L129.569 18.1033L129.668 24.1318H126.109Z" fill="currentColor" stroke="#0C0706" stroke-width="3" stroke-linejoin="round"/>
<path d="M106.625 30.3955H87.0204L94.3908 3.39501C94.5139 2.94394 94.4197 2.46126 94.1359 2.08965C93.8521 1.71803 93.4113 1.5 92.9437 1.5H76.6798C76.0039 1.5 75.4115 1.95197 75.233 2.60383L64.5533 41.6038C64.4297 42.055 64.5237 42.538 64.8075 42.9099C65.0912 43.2818 65.5322 43.5 66 43.5H103.833C104.507 43.5 105.099 43.0497 105.279 42.3995L108.071 32.295C108.196 31.8435 108.102 31.3597 107.819 30.987C107.535 30.6142 107.093 30.3955 106.625 30.3955Z" fill="currentColor" stroke="#0C0706" stroke-width="3" stroke-linejoin="round"/>
</svg>
