<svg width="607" height="96" viewBox="0 0 607 96" fill="none" xmlns="http://www.w3.org/2000/svg">
<path d="M550.238 66.3734H607L599.652 89.5837H500.09L528.195 0H570.996L550.238 66.3734Z" fill="currentColor" stroke-linejoin="round" stroke="color"/>
<path d="M432.594 90.1261L481.337 0H518.324L526.25 90.1261H497.321L496.925 72.1009H472.619L464.033 90.1261H432.594ZM482.13 52.3005H496.396L496 22.2584L482.13 52.3005Z" fill="currentColor" stroke-linejoin="round" stroke="color"/>
<path d="M475.351 0L427.051 90.1261H390.496L382.578 0H411.479L412.931 48.4769L413.194 66.0925L420.585 48.6135L444.339 0H475.351Z" fill="currentColor" stroke-linejoin="round" stroke="color"/>
<path d="M393.18 0L372.518 92.272H341.051L361.714 0H393.18Z" fill="currentColor" stroke-linejoin="round" stroke="color"/>
<path d="M356.955 0L351.649 23.3509H324.32L309.33 90.1261H278.419L293.41 23.3509H265.949L271.256 0H356.955Z" fill="currentColor" stroke-linejoin="round" stroke="color"/>
<path d="M238.496 95.1331C232.607 95.1331 226.85 94.4367 221.225 93.0438C215.688 91.5581 210.503 89.3295 205.669 86.358C200.835 83.3866 196.484 79.6258 192.617 75.0758L207.91 55.8541C210.371 58.8256 213.315 61.472 216.743 63.7935C220.171 66.1149 223.73 67.9721 227.422 69.365C231.113 70.665 234.585 71.315 237.837 71.315C239.507 71.315 240.781 71.1293 241.66 70.7579C242.627 70.2936 243.33 69.7364 243.769 69.0864C244.209 68.4364 244.429 67.6935 244.429 66.8578C244.429 65.8364 243.945 65.0007 242.978 64.3506C242.099 63.6078 240.605 62.8649 238.496 62.1221L226.235 57.5256C222.632 56.1327 219.204 54.322 215.952 52.0934C212.7 49.7719 210.063 46.8469 208.042 43.3183C206.02 39.7897 205.01 35.5646 205.01 30.6432C205.01 23.6788 206.68 17.968 210.019 13.5109C213.359 8.9608 217.886 5.57148 223.599 3.34289C229.311 1.1143 235.727 0 242.847 0C252.339 0 260.381 1.62501 266.972 4.87504C273.564 8.03222 279.409 12.2108 284.507 17.4109L268.291 36.0754C266.094 33.7539 263.633 31.711 260.908 29.9467C258.183 28.0896 255.327 26.6503 252.339 25.6288C249.35 24.6074 246.318 24.0967 243.242 24.0967C241.836 24.0967 240.649 24.236 239.682 24.5145C238.804 24.7931 238.144 25.211 237.705 25.7681C237.265 26.3253 237.046 27.0217 237.046 27.8574C237.046 28.9717 237.705 29.9467 239.023 30.7824C240.342 31.5253 242.099 32.3146 244.297 33.1503L255.503 37.3289C262.27 39.8361 267.456 43.1326 271.059 47.2183C274.751 51.2112 276.596 56.6434 276.596 63.5149C276.596 70.2007 274.927 75.9115 271.587 80.6472C268.247 85.383 263.721 89.0045 258.008 91.5116C252.295 93.9259 245.791 95.1331 238.496 95.1331Z" fill="currentColor" stroke-linejoin="round" stroke="color"/>
<path d="M124.582 92.9872L144.85 0H218.239L212.94 24.0922H170.417L167.9 35.6451H201.547L196.778 57.9057H163.131L160.746 68.8951H204.064L198.765 92.9872H124.582Z" fill="currentColor" stroke-linejoin="round" stroke="color"/>
<path d="M156.371 24.0922H108.445L105.188 37.054H144.118L137.914 61.1462H98.9842L90.9191 92.9872H54.7812L78.5113 0H162.575L156.371 24.0922Z" fill="currentColor" stroke-linejoin="round" stroke="color"/>
<g filter="url(#filter0_i_90_64957)">
<path d="M0 70.5571L18.503 36.4678H85.5006L80.6631 45.3H41.8433L39.5455 49.5354H70.2628L65.9092 57.6961H35.1919L33.0151 61.7249H72.5606L67.7232 70.5571H0Z" fill="currentColor" stroke-linejoin="round" stroke="color"/>
</g>
<path d="M40.5884 25.2571H77.5271L72.7454 34.0894H7.95312L26.2432 0H54.0967L40.5884 25.2571Z" fill="currentColor" stroke-linejoin="round" stroke="color"/>
<defs>
<filter id="filter0_i_90_64957" x="0" y="36.4678" width="89.5" height="38.0898" filterUnits="userSpaceOnUse" color-interpolation-filters="sRGB">
<feFlood flood-opacity="0" result="BackgroundImageFix"/>
<feBlend mode="normal" in="SourceGraphic" in2="BackgroundImageFix" result="shape"/>
<feColorMatrix in="SourceAlpha" type="matrix" values="0 0 0 0 0 0 0 0 0 0 0 0 0 0 0 0 0 0 127 0" result="hardAlpha"/>
<feOffset dx="4" dy="4"/>
<feGaussianBlur stdDeviation="2"/>
<feComposite in2="hardAlpha" operator="arithmetic" k2="-1" k3="1"/>
<feColorMatrix type="matrix" values="0 0 0 0 1 0 0 0 0 1 0 0 0 0 1 0 0 0 0.25 0"/>
<feBlend mode="normal" in2="shape" result="effect1_innerShadow_90_64957"/>
</filter>
</defs>
</svg>
