<svg viewBox="0 0 465 88" fill="none" xmlns="http://www.w3.org/2000/svg">
<mask id="path-1-outside-1_49_231" maskUnits="userSpaceOnUse" x="376.512" y="0" width="89" height="84" fill="black">
<rect fill="white" x="376.512" width="89" height="84"/>
<path d="M418.268 59.6932H461.002L455.47 79.1688H380.512L401.672 4H433.895L418.268 59.6932Z"/>
</mask>
<path d="M418.268 59.6932H461.002L455.47 79.1688H380.512L401.672 4H433.895L418.268 59.6932Z" fill="currentColor"/>
<path d="M418.268 59.6932H461.002L455.47 79.1688H380.512L401.672 4H433.895L418.268 59.6932Z" stroke="currentColor" stroke-width="8" stroke-linejoin="round" mask="url(#path-1-outside-1_49_231)"/>
<mask id="path-2-outside-2_49_231" maskUnits="userSpaceOnUse" x="325.695" y="0" width="79" height="84" fill="black">
<rect fill="white" x="325.695" width="79" height="84"/>
<path d="M329.695 79.6239L366.394 4H394.24L400.208 79.6239H378.427L378.129 64.4991H359.83L353.365 79.6239H329.695ZM366.99 47.8848H377.731L377.433 22.6768L366.99 47.8848Z"/>
</mask>
<path d="M329.695 79.6239L366.394 4H394.24L400.208 79.6239H378.427L378.129 64.4991H359.83L353.365 79.6239H329.695ZM366.99 47.8848H377.731L377.433 22.6768L366.99 47.8848Z" fill="currentColor"/>
<path d="M329.695 79.6239L366.394 4H394.24L400.208 79.6239H378.427L378.129 64.4991H359.83L353.365 79.6239H329.695ZM366.99 47.8848H377.731L377.433 22.6768L366.99 47.8848Z" stroke="currentColor" stroke-width="8" stroke-linejoin="round" mask="url(#path-2-outside-2_49_231)"/>
<mask id="path-3-outside-3_49_231" maskUnits="userSpaceOnUse" x="288.039" y="0" width="78" height="84" fill="black">
<rect fill="white" x="288.039" width="78" height="84"/>
<path d="M361.886 4L325.522 79.6239H298L292.039 4H313.798L314.891 44.6765L315.09 59.4575L320.654 44.7911L338.538 4H361.886Z"/>
</mask>
<path d="M361.886 4L325.522 79.6239H298L292.039 4H313.798L314.891 44.6765L315.09 59.4575L320.654 44.7911L338.538 4H361.886Z" fill="currentColor"/>
<path d="M361.886 4L325.522 79.6239H298L292.039 4H313.798L314.891 44.6765L315.09 59.4575L320.654 44.7911L338.538 4H361.886Z" stroke="currentColor" stroke-width="8" stroke-linejoin="round" mask="url(#path-3-outside-3_49_231)"/>
<mask id="path-4-outside-4_49_231" maskUnits="userSpaceOnUse" x="256.773" y="0" width="48" height="86" fill="black">
<rect fill="white" x="256.773" width="48" height="86"/>
<path d="M300.021 4L284.464 81.4245H260.773L276.33 4H300.021Z"/>
</mask>
<path d="M300.021 4L284.464 81.4245H260.773L276.33 4H300.021Z" fill="currentColor"/>
<path d="M300.021 4L284.464 81.4245H260.773L276.33 4H300.021Z" stroke="currentColor" stroke-width="8" stroke-linejoin="round" mask="url(#path-4-outside-4_49_231)"/>
<mask id="path-5-outside-5_49_231" maskUnits="userSpaceOnUse" x="200.23" y="0" width="77" height="84" fill="black">
<rect fill="white" x="200.23" width="77" height="84"/>
<path d="M272.747 4L268.752 23.5935H248.177L236.891 79.6239H213.619L224.905 23.5935H204.23L208.226 4H272.747Z"/>
</mask>
<path d="M272.747 4L268.752 23.5935H248.177L236.891 79.6239H213.619L224.905 23.5935H204.23L208.226 4H272.747Z" fill="currentColor"/>
<path d="M272.747 4L268.752 23.5935H248.177L236.891 79.6239H213.619L224.905 23.5935H204.23L208.226 4H272.747Z" stroke="currentColor" stroke-width="8" stroke-linejoin="round" mask="url(#path-5-outside-5_49_231)"/>
<mask id="path-6-outside-6_49_231" maskUnits="userSpaceOnUse" x="145.02" y="0" width="78" height="88" fill="black">
<rect fill="white" x="145.02" width="78" height="88"/>
<path d="M183.561 83.8252C179.127 83.8252 174.793 83.2408 170.558 82.0721C166.389 80.8254 162.485 78.9555 158.846 76.4621C155.207 73.9688 151.931 70.8132 149.02 66.9953L160.533 50.8666C162.386 53.36 164.603 55.5806 167.184 57.5285C169.764 59.4764 172.444 61.0347 175.223 62.2035C178.002 63.2943 180.616 63.8397 183.065 63.8397C184.322 63.8397 185.281 63.6839 185.943 63.3722C186.671 62.9826 187.2 62.5151 187.531 61.9697C187.862 61.4243 188.027 60.801 188.027 60.0997C188.027 59.2426 187.663 58.5414 186.936 57.996C186.274 57.3726 185.149 56.7493 183.561 56.126L174.33 52.2691C171.617 51.1004 169.036 49.581 166.588 47.711C164.14 45.7631 162.154 43.3088 160.633 40.3479C159.111 37.3871 158.35 33.8419 158.35 29.7124C158.35 23.8686 159.607 19.0768 162.121 15.3368C164.636 11.5189 168.044 8.67497 172.345 6.80498C176.646 4.93499 181.476 4 186.836 4C193.983 4 200.037 5.36353 205 8.0906C209.963 10.7398 214.363 14.246 218.201 18.6093L205.993 34.2705C204.339 32.3226 202.486 30.6084 200.434 29.128C198.383 27.5697 196.233 26.362 193.983 25.5049C191.733 24.6478 189.45 24.2193 187.134 24.2193C186.075 24.2193 185.182 24.3361 184.454 24.5699C183.792 24.8036 183.296 25.1543 182.965 25.6218C182.634 26.0893 182.469 26.6736 182.469 27.3749C182.469 28.3099 182.965 29.128 183.958 29.8292C184.95 30.4526 186.274 31.1149 187.928 31.8161L196.365 35.3223C201.46 37.4261 205.364 40.1921 208.077 43.6204C210.856 46.9708 212.246 51.5289 212.246 57.2947C212.246 62.9047 210.989 67.6966 208.474 71.6703C205.96 75.644 202.552 78.6827 198.251 80.7865C193.95 82.8123 189.053 83.8252 183.561 83.8252Z"/>
</mask>
<path d="M183.561 83.8252C179.127 83.8252 174.793 83.2408 170.558 82.0721C166.389 80.8254 162.485 78.9555 158.846 76.4621C155.207 73.9688 151.931 70.8132 149.02 66.9953L160.533 50.8666C162.386 53.36 164.603 55.5806 167.184 57.5285C169.764 59.4764 172.444 61.0347 175.223 62.2035C178.002 63.2943 180.616 63.8397 183.065 63.8397C184.322 63.8397 185.281 63.6839 185.943 63.3722C186.671 62.9826 187.2 62.5151 187.531 61.9697C187.862 61.4243 188.027 60.801 188.027 60.0997C188.027 59.2426 187.663 58.5414 186.936 57.996C186.274 57.3726 185.149 56.7493 183.561 56.126L174.33 52.2691C171.617 51.1004 169.036 49.581 166.588 47.711C164.14 45.7631 162.154 43.3088 160.633 40.3479C159.111 37.3871 158.35 33.8419 158.35 29.7124C158.35 23.8686 159.607 19.0768 162.121 15.3368C164.636 11.5189 168.044 8.67497 172.345 6.80498C176.646 4.93499 181.476 4 186.836 4C193.983 4 200.037 5.36353 205 8.0906C209.963 10.7398 214.363 14.246 218.201 18.6093L205.993 34.2705C204.339 32.3226 202.486 30.6084 200.434 29.128C198.383 27.5697 196.233 26.362 193.983 25.5049C191.733 24.6478 189.45 24.2193 187.134 24.2193C186.075 24.2193 185.182 24.3361 184.454 24.5699C183.792 24.8036 183.296 25.1543 182.965 25.6218C182.634 26.0893 182.469 26.6736 182.469 27.3749C182.469 28.3099 182.965 29.128 183.958 29.8292C184.95 30.4526 186.274 31.1149 187.928 31.8161L196.365 35.3223C201.46 37.4261 205.364 40.1921 208.077 43.6204C210.856 46.9708 212.246 51.5289 212.246 57.2947C212.246 62.9047 210.989 67.6966 208.474 71.6703C205.96 75.644 202.552 78.6827 198.251 80.7865C193.95 82.8123 189.053 83.8252 183.561 83.8252Z" fill="currentColor"/>
<path d="M183.561 83.8252C179.127 83.8252 174.793 83.2408 170.558 82.0721C166.389 80.8254 162.485 78.9555 158.846 76.4621C155.207 73.9688 151.931 70.8132 149.02 66.9953L160.533 50.8666C162.386 53.36 164.603 55.5806 167.184 57.5285C169.764 59.4764 172.444 61.0347 175.223 62.2035C178.002 63.2943 180.616 63.8397 183.065 63.8397C184.322 63.8397 185.281 63.6839 185.943 63.3722C186.671 62.9826 187.2 62.5151 187.531 61.9697C187.862 61.4243 188.027 60.801 188.027 60.0997C188.027 59.2426 187.663 58.5414 186.936 57.996C186.274 57.3726 185.149 56.7493 183.561 56.126L174.33 52.2691C171.617 51.1004 169.036 49.581 166.588 47.711C164.14 45.7631 162.154 43.3088 160.633 40.3479C159.111 37.3871 158.35 33.8419 158.35 29.7124C158.35 23.8686 159.607 19.0768 162.121 15.3368C164.636 11.5189 168.044 8.67497 172.345 6.80498C176.646 4.93499 181.476 4 186.836 4C193.983 4 200.037 5.36353 205 8.0906C209.963 10.7398 214.363 14.246 218.201 18.6093L205.993 34.2705C204.339 32.3226 202.486 30.6084 200.434 29.128C198.383 27.5697 196.233 26.362 193.983 25.5049C191.733 24.6478 189.45 24.2193 187.134 24.2193C186.075 24.2193 185.182 24.3361 184.454 24.5699C183.792 24.8036 183.296 25.1543 182.965 25.6218C182.634 26.0893 182.469 26.6736 182.469 27.3749C182.469 28.3099 182.965 29.128 183.958 29.8292C184.95 30.4526 186.274 31.1149 187.928 31.8161L196.365 35.3223C201.46 37.4261 205.364 40.1921 208.077 43.6204C210.856 46.9708 212.246 51.5289 212.246 57.2947C212.246 62.9047 210.989 67.6966 208.474 71.6703C205.96 75.644 202.552 78.6827 198.251 80.7865C193.95 82.8123 189.053 83.8252 183.561 83.8252Z" stroke="currentColor" stroke-width="8" stroke-linejoin="round" mask="url(#path-6-outside-6_49_231)"/>
<mask id="path-7-outside-7_49_231" maskUnits="userSpaceOnUse" x="93.7969" y="0" width="79" height="87" fill="black">
<rect fill="white" x="93.7969" width="79" height="87"/>
<path d="M97.7969 82.0247L113.056 4H168.309L164.32 24.2155H132.305L130.41 33.9095H155.743L152.152 52.5881H126.82L125.024 61.8092H157.638L153.648 82.0247H97.7969Z"/>
</mask>
<path d="M97.7969 82.0247L113.056 4H168.309L164.32 24.2155H132.305L130.41 33.9095H155.743L152.152 52.5881H126.82L125.024 61.8092H157.638L153.648 82.0247H97.7969Z" fill="currentColor"/>
<path d="M97.7969 82.0247L113.056 4H168.309L164.32 24.2155H132.305L130.41 33.9095H155.743L152.152 52.5881H126.82L125.024 61.8092H157.638L153.648 82.0247H97.7969Z" stroke="currentColor" stroke-width="8" stroke-linejoin="round" mask="url(#path-7-outside-7_49_231)"/>
<mask id="path-8-outside-8_49_231" maskUnits="userSpaceOnUse" x="41.2461" y="0" width="90" height="87" fill="black">
<rect fill="white" x="41.2461" width="90" height="87"/>
<path d="M121.731 24.2155H85.6488L83.1966 35.0916H112.506L107.835 55.3071H78.5257L72.4537 82.0247H45.2461L63.112 4H126.402L121.731 24.2155Z"/>
</mask>
<path d="M121.731 24.2155H85.6488L83.1966 35.0916H112.506L107.835 55.3071H78.5257L72.4537 82.0247H45.2461L63.112 4H126.402L121.731 24.2155Z" fill="currentColor"/>
<path d="M121.731 24.2155H85.6488L83.1966 35.0916H112.506L107.835 55.3071H78.5257L72.4537 82.0247H45.2461L63.112 4H126.402L121.731 24.2155Z" stroke="currentColor" stroke-width="8" stroke-linejoin="round" mask="url(#path-8-outside-8_49_231)"/>
<mask id="path-9-outside-9_49_231" maskUnits="userSpaceOnUse" x="0" y="30.5996" width="73" height="37" fill="black">
<rect fill="white" y="30.5996" width="73" height="37"/>
<path d="M4 63.2036L17.9305 34.5996H68.3718L64.7298 42.0107H35.5031L33.7731 45.5645H56.8996L53.6218 52.4121H30.4953L28.8564 55.7926H58.6295L54.9876 63.2036H4Z"/>
</mask>
<g filter="url(#filter0_i_49_231)">
<path d="M4 63.2036L17.9305 34.5996H68.3718L64.7298 42.0107H35.5031L33.7731 45.5645H56.8996L53.6218 52.4121H30.4953L28.8564 55.7926H58.6295L54.9876 63.2036H4Z" fill="currentColor"/>
</g>
<path d="M4 63.2036L17.9305 34.5996H68.3718L64.7298 42.0107H35.5031L33.7731 45.5645H56.8996L53.6218 52.4121H30.4953L28.8564 55.7926H58.6295L54.9876 63.2036H4Z" stroke="currentColor" stroke-width="8" stroke-linejoin="round" mask="url(#path-9-outside-9_49_231)"/>
<mask id="path-10-outside-10_49_231" maskUnits="userSpaceOnUse" x="5.98828" y="0" width="61" height="37" fill="black">
<rect fill="white" x="5.98828" width="61" height="37"/>
<path d="M34.5588 25.193H62.3693L58.7692 32.604H9.98828L23.7586 4H44.729L34.5588 25.193Z"/>
</mask>
<path d="M34.5588 25.193H62.3693L58.7692 32.604H9.98828L23.7586 4H44.729L34.5588 25.193Z" fill="currentColor"/>
<path d="M34.5588 25.193H62.3693L58.7692 32.604H9.98828L23.7586 4H44.729L34.5588 25.193Z" stroke="currentColor" stroke-width="8" stroke-linejoin="round" mask="url(#path-10-outside-10_49_231)"/>
<defs>
<filter id="filter0_i_49_231" x="0" y="30.5996" width="76.3721" height="40.604" filterUnits="userSpaceOnUse" color-interpolation-filters="sRGB">
<feFlood flood-opacity="0" result="BackgroundImageFix"/>
<feBlend mode="normal" in="SourceGraphic" in2="BackgroundImageFix" result="shape"/>
<feColorMatrix in="SourceAlpha" type="matrix" values="0 0 0 0 0 0 0 0 0 0 0 0 0 0 0 0 0 0 127 0" result="hardAlpha"/>
<feOffset dx="4" dy="4"/>
<feGaussianBlur stdDeviation="2"/>
<feComposite in2="hardAlpha" operator="arithmetic" k2="-1" k3="1"/>
<feColorMatrix type="matrix" values="0 0 0 0 1 0 0 0 0 1 0 0 0 0 1 0 0 0 0.25 0"/>
<feBlend mode="normal" in2="shape" result="effect1_innerShadow_49_231"/>
</filter>
</defs>
</svg>
