<svg width="208" height="37" viewBox="0 0 208 37" fill="none" xmlns="http://www.w3.org/2000/svg">
<path d="M164.426 27.7305L173.206 4.48047H204.999L202.704 10.5043H184.282L183.192 13.393H197.768L195.702 18.9589H181.126L180.093 21.7066H198.859L196.563 27.7305H164.426Z" fill="currentColor"/>
<path fill-rule="evenodd" clip-rule="evenodd" d="M161.958 29.4364C161.398 28.626 161.271 27.5922 161.619 26.6706L170.4 3.42057C170.841 2.25307 171.958 1.48047 173.206 1.48047H204.999C205.986 1.48047 206.91 1.96571 207.47 2.77824C208.029 3.59077 208.154 4.62667 207.803 5.54875L205.507 11.5726C205.064 12.7357 203.948 13.5043 202.704 13.5043H200.766C200.755 13.8191 200.693 14.1339 200.581 14.4369L198.995 18.7097C199.93 18.7521 200.795 19.2293 201.329 20.0044C201.889 20.8169 202.013 21.8528 201.662 22.7749L199.366 28.7987C198.923 29.9619 197.808 30.7305 196.563 30.7305H164.426C163.441 30.7305 162.518 30.2468 161.958 29.4364ZM180.093 21.7066L181.126 18.9589H195.702L197.768 13.393H183.192L184.282 10.5043H202.704L204.999 4.48047H173.206L164.426 27.7305H196.563L198.859 21.7066H180.093Z" fill="#0C0706"/>
<path d="M131.035 27.4512L139.816 4.20117H156.171C161.183 4.20117 165.085 4.84701 167.878 6.13867C170.709 7.40685 172.125 9.22693 172.125 11.5989C172.125 13.3837 171.436 14.969 170.059 16.3546C168.682 17.7167 166.692 18.7853 164.091 19.5603C161.527 20.3353 158.428 20.7228 154.794 20.7228H140.562L142.685 14.9103H153.646C154.794 14.9103 155.75 14.7928 156.515 14.558C157.319 14.2997 157.931 13.9709 158.352 13.5716C158.773 13.1489 158.983 12.6909 158.983 12.1978C158.983 11.5167 158.658 10.9883 158.008 10.6125C157.357 10.2133 156.209 10.0137 154.564 10.0137H150.949L144.407 27.4512H131.035Z" fill="currentColor"/>
<path fill-rule="evenodd" clip-rule="evenodd" d="M128.567 29.1571C128.007 28.3467 127.881 27.3129 128.229 26.3913L137.009 3.14128C137.45 1.97378 138.568 1.20117 139.816 1.20117H156.171C161.369 1.20117 165.764 1.85985 169.121 3.40822C170.83 4.17592 172.34 5.20932 173.431 6.61307C174.561 8.06579 175.125 9.76647 175.125 11.5989C175.125 14.2551 174.065 16.5803 172.187 18.4695L172.169 18.4876C170.33 20.3061 167.846 21.5713 164.953 22.4337C162.029 23.3168 158.623 23.7228 154.794 23.7228H149.01L147.215 28.505C146.776 29.6757 145.657 30.4512 144.407 30.4512H131.035C130.05 30.4512 129.128 29.9675 128.567 29.1571ZM146.931 20.7228H154.794C158.428 20.7228 161.527 20.3353 164.091 19.5603C166.692 18.7853 168.682 17.7167 170.059 16.3546C171.436 14.969 172.125 13.3837 172.125 11.5989C172.125 9.22693 170.709 7.40685 167.878 6.13867C165.085 4.84701 161.183 4.20117 156.171 4.20117H139.816L131.035 27.4512H144.407L146.931 20.7228ZM153.646 14.9103C154.794 14.9103 155.75 14.7928 156.515 14.558C157.319 14.2997 157.931 13.9709 158.352 13.5716C158.773 13.1489 158.983 12.6909 158.983 12.1978C158.983 11.5167 158.658 10.9883 158.008 10.6125C157.357 10.2133 156.209 10.0137 154.564 10.0137H150.949L149.112 14.9103H153.646Z" fill="#0C0706"/>
<path d="M136.949 4.20117L128.168 27.4512H114.797L123.577 4.20117H136.949Z" fill="currentColor"/>
<path fill-rule="evenodd" clip-rule="evenodd" d="M139.416 2.49525C139.977 3.30564 140.103 4.33942 139.755 5.26106L130.975 28.5111C130.534 29.6786 129.416 30.4512 128.168 30.4512H114.797C113.812 30.4512 112.889 29.9675 112.329 29.1571C111.769 28.3467 111.642 27.3129 111.99 26.3913L120.771 3.14128C121.212 1.97378 122.329 1.20117 123.577 1.20117H136.949C137.934 1.20117 138.856 1.68486 139.416 2.49525ZM136.949 4.20117H123.577L114.797 27.4512H128.168L136.949 4.20117Z" fill="#0C0706"/>
<path d="M95.3056 27.8034C91.2119 27.8034 87.7878 27.369 85.0332 26.5C82.3168 25.6311 80.4039 24.3864 79.2944 22.7659C78.2231 21.1455 78.1083 19.2197 78.95 16.9887L83.828 4.20117H97.2568L92.1493 17.9398C91.8815 18.7148 91.8815 19.3841 92.1493 19.9478C92.4171 20.4879 92.9145 20.9106 93.6414 21.2159C94.4066 21.4978 95.363 21.6387 96.5108 21.6387C97.9646 21.6387 99.0932 21.3803 99.8967 20.8637C100.7 20.347 101.312 19.5015 101.733 18.3273L107.07 4.20117H120.442L115.162 18.0807C113.861 21.439 111.661 23.905 108.562 25.4784C105.463 27.0284 101.044 27.8034 95.3056 27.8034Z" fill="currentColor"/>
<path fill-rule="evenodd" clip-rule="evenodd" d="M84.1184 29.3574C81.0445 28.3741 78.4415 26.8315 76.8183 24.4608C76.8091 24.4474 76.8 24.4339 76.7911 24.4203C75.0663 21.8113 75.0477 18.8314 76.1424 15.9297L76.1463 15.9194L81.0243 3.13193C81.4678 1.96932 82.583 1.20117 83.8273 1.20117H97.2561C98.2386 1.20117 99.1587 1.6822 99.7195 2.48889C100.28 3.29558 100.41 4.3257 100.068 5.24656L95.1319 18.5242C95.4653 18.5906 95.916 18.6387 96.51 18.6387C97.6677 18.6387 98.1447 18.4231 98.2733 18.3404C98.3713 18.2773 98.6421 18.058 98.9083 17.3152C98.9141 17.2991 98.92 17.283 98.926 17.267L104.263 3.14088C104.704 1.97359 105.822 1.20117 107.069 1.20117H120.441C121.427 1.20117 122.351 1.68611 122.911 2.49821C123.471 3.31032 123.596 4.3458 123.245 5.26779L117.965 19.1473L117.959 19.1643C116.401 23.1849 113.704 26.2319 109.92 28.1534L109.904 28.1615C106.2 30.0138 101.241 30.8034 95.3049 30.8034C91.0219 30.8034 87.2703 30.3517 84.1299 29.3611L84.1184 29.3574ZM92.1486 17.9398L97.2561 4.20117H83.8273L78.9493 16.9887C78.1076 19.2197 78.2224 21.1455 79.2937 22.7659C80.4032 24.3864 82.3161 25.6311 85.0324 26.5C87.7871 27.369 91.2112 27.8034 95.3049 27.8034C101.044 27.8034 105.463 27.0284 108.562 25.4784C111.661 23.905 113.86 21.439 115.161 18.0807L120.441 4.20117H107.069L101.732 18.3273C101.312 19.5016 100.699 20.347 99.8959 20.8637C99.0925 21.3803 97.9639 21.6387 96.51 21.6387C95.3623 21.6387 94.4059 21.4978 93.6407 21.2159C92.9138 20.9106 92.4164 20.4879 92.1486 19.9478C91.8808 19.3841 91.8808 18.7148 92.1486 17.9398Z" fill="#0C0706"/>
<path d="M63.4626 34C61.894 34 60.3254 33.8943 58.7568 33.683C57.1882 33.4716 55.7535 33.1311 54.4527 32.6614C53.1902 32.2151 52.1572 31.6163 51.3538 30.8648C50.5886 30.1367 50.206 29.2326 50.206 28.1523C50.206 27.8939 50.2251 27.5886 50.2634 27.2364C50.3016 26.9076 50.4356 26.4966 50.6651 26.0034H58.7568C58.642 26.1443 58.5655 26.2852 58.5273 26.4261C58.489 26.5436 58.4699 26.661 58.4699 26.7784C58.4699 27.3655 59.0438 27.7648 60.1915 27.9761C61.3776 28.1875 62.8123 28.2932 64.4956 28.2932C65.873 28.2932 67.0781 28.2227 68.1111 28.0818C69.1441 27.9644 70.024 27.8117 70.7509 27.6239V33.0136C69.9093 33.2955 68.8954 33.5303 67.7094 33.7182C66.5616 33.9061 65.146 34 63.4626 34ZM56.863 26.9545C53.4962 26.9545 50.4738 26.5553 47.7957 25.7568C45.1176 24.9348 43.0134 23.7606 41.483 22.2341C39.9527 20.6841 39.1875 18.8405 39.1875 16.7034C39.1875 14.6837 39.6657 12.8402 40.6222 11.1727C41.5786 9.48182 42.956 8.02576 44.7541 6.80454C46.5905 5.58333 48.8096 4.64394 51.4111 3.98636C54.051 3.32879 57.0161 3 60.3063 3C63.7113 3 66.7338 3.41098 69.3736 4.23295C72.0517 5.03144 74.1559 6.19394 75.6863 7.72045C77.2166 9.24697 77.9818 11.0905 77.9818 13.2511C77.9818 15.2708 77.5036 17.1261 76.5471 18.817C75.5907 20.4845 74.1942 21.9288 72.3578 23.15C70.5596 24.3712 68.3406 25.3106 65.7008 25.9682C63.0992 26.6258 60.1533 26.9545 56.863 26.9545ZM57.0926 20.7898C58.3934 20.7898 59.5029 20.5314 60.4211 20.0148C61.3775 19.4746 62.1619 18.7818 62.774 17.9364C63.4244 17.0909 63.9026 16.1867 64.2087 15.2239C64.5148 14.2375 64.6678 13.3098 64.6678 12.4409C64.6678 11.7129 64.4956 11.114 64.1513 10.6443C63.8452 10.1511 63.3478 9.78712 62.6592 9.55227C62.0088 9.29394 61.148 9.16477 60.0767 9.16477C58.7759 9.16477 57.6473 9.43485 56.6908 9.975C55.7726 10.4917 54.9883 11.1727 54.3379 12.0182C53.7258 12.8636 53.2667 13.7795 52.9606 14.7659C52.6546 15.7288 52.5015 16.6447 52.5015 17.5136C52.5015 18.2182 52.6546 18.817 52.9606 19.3102C53.305 19.8034 53.8215 20.1792 54.5101 20.4375C55.1988 20.6723 56.0596 20.7898 57.0926 20.7898Z" fill="currentColor"/>
<path fill-rule="evenodd" clip-rule="evenodd" d="M70.7509 33.0136C69.9093 33.2955 68.8954 33.5303 67.7094 33.7182C66.5616 33.9061 65.146 34 63.4626 34C61.894 34 60.3254 33.8943 58.7568 33.683C57.1882 33.4716 55.7535 33.1311 54.4527 32.6614C53.1902 32.2151 52.1572 31.6163 51.3538 30.8648C50.9148 30.4472 50.6018 29.9716 50.4147 29.4381C50.2756 29.0415 50.206 28.6129 50.206 28.1523C50.206 27.8939 50.2251 27.5886 50.2634 27.2364C50.2908 27.0011 50.3671 26.7238 50.4924 26.4044C49.5577 26.23 48.6588 26.0142 47.7957 25.7568C47.7175 25.7328 47.6399 25.7085 47.5627 25.6839C44.9952 24.866 42.9687 23.7161 41.483 22.2341C39.9527 20.6841 39.1875 18.8405 39.1875 16.7034C39.1875 14.6837 39.6657 12.8402 40.6222 11.1727C41.5786 9.48182 42.956 8.02576 44.7541 6.80454C46.5905 5.58333 48.8096 4.64394 51.4111 3.98636C54.051 3.32879 57.0161 3 60.3063 3C63.7113 3 66.7338 3.41098 69.3736 4.23295C72.0517 5.03144 74.1559 6.19394 75.6863 7.72045C77.2166 9.24697 77.9818 11.0905 77.9818 13.2511C77.9818 15.2708 77.5036 17.1261 76.5471 18.817C75.5907 20.4845 74.1942 21.9288 72.3578 23.15C71.3479 23.8359 70.2051 24.4329 68.9297 24.941C68.5644 25.0865 68.1882 25.2247 67.8012 25.3557C67.7815 25.3623 67.7617 25.369 67.7419 25.3756C67.0921 25.5936 66.4117 25.7911 65.7008 25.9682C65.307 26.0677 64.9052 26.1597 64.4956 26.2442C63.5942 26.4301 62.6545 26.5795 61.6766 26.6925C61.6076 26.7004 61.5384 26.7082 61.4689 26.7158C61.2642 26.7383 61.0578 26.7591 60.8497 26.7784C60.7023 26.7921 60.5541 26.8049 60.405 26.817C60.4027 26.8172 60.4003 26.8174 60.398 26.8176C60.2869 26.8265 60.1753 26.8351 60.0632 26.8432C59.9931 26.8482 59.9228 26.8531 59.8523 26.8579C59.838 26.8588 59.8236 26.8598 59.8093 26.8607C59.4628 26.8835 59.112 26.9022 58.7568 26.9167C58.6658 26.9204 58.5744 26.9239 58.4828 26.927C58.5149 27.1053 58.6062 27.2641 58.7568 27.4035C59.0341 27.6602 59.5123 27.8511 60.1915 27.9761C61.3776 28.1875 62.8123 28.2932 64.4956 28.2932C65.1224 28.2932 65.7136 28.2786 66.269 28.2494C66.2718 28.2493 66.2745 28.2491 66.2773 28.249C66.8001 28.2214 67.2914 28.1808 67.7509 28.1273C67.8732 28.113 67.9933 28.0979 68.1111 28.0818C68.7059 28.0142 69.25 27.9349 69.7433 27.8439C70.1068 27.7769 70.4426 27.7036 70.7509 27.6239V33.0136ZM73.3305 26.0922C73.6023 26.55 73.7509 27.0779 73.7509 27.6239V33.0136C73.7509 34.3034 72.9265 35.4489 71.7034 35.8584C70.6623 36.207 69.48 36.4748 68.1859 36.6801C66.8262 36.902 65.2397 37 63.4626 37C61.7588 37 60.0564 36.8852 58.3562 36.6561C56.6099 36.4208 54.9678 36.0361 53.4432 35.4864C51.8772 34.9318 50.4657 34.142 49.3044 33.0557L49.2859 33.0382C48.0492 31.8616 47.3551 30.3716 47.2275 28.7162C47.1309 28.6885 47.0345 28.6604 46.9385 28.6318L46.9155 28.6248C43.9042 27.7005 41.328 26.3168 39.3644 24.3581L39.3482 24.3418C37.2754 22.2424 36.1875 19.6464 36.1875 16.7034C36.1875 14.1906 36.788 11.8309 38.0154 9.68785C39.2246 7.55317 40.9372 5.77035 43.0686 4.32278L43.0929 4.30647C45.2663 2.86115 47.8138 1.80128 50.676 1.07783L50.686 1.0753C53.6064 0.347854 56.8207 0 60.3063 0C63.9396 0 67.2662 0.437025 70.2482 1.3632C73.2595 2.26335 75.8385 3.63493 77.805 5.59648C79.8993 7.68554 80.9818 10.2932 80.9818 13.2511C80.9818 15.7671 80.38 18.1344 79.1583 20.2941L79.1494 20.3098C77.9318 22.4325 76.1921 24.2007 74.0311 25.64C73.8022 25.7952 73.5686 25.9459 73.3305 26.0922ZM64.1513 10.6443C64.4956 11.114 64.6678 11.7129 64.6678 12.4409C64.6678 13.3098 64.5148 14.2375 64.2087 15.2239C63.9026 16.1867 63.4244 17.0909 62.774 17.9364C62.1619 18.7818 61.3775 19.4746 60.4211 20.0148C59.5029 20.5314 58.3934 20.7898 57.0926 20.7898C56.0596 20.7898 55.1988 20.6723 54.5101 20.4375C53.8215 20.1792 53.305 19.8034 52.9606 19.3102C52.6546 18.817 52.5015 18.2182 52.5015 17.5136C52.5015 16.6447 52.6546 15.7288 52.9606 14.7659C53.2667 13.7795 53.7258 12.8636 54.3379 12.0182C54.9883 11.1727 55.7726 10.4917 56.6908 9.975C57.6473 9.43485 58.7759 9.16477 60.0767 9.16477C61.148 9.16477 62.0088 9.29394 62.6592 9.55227C63.3478 9.78712 63.8452 10.1511 64.1513 10.6443ZM55.5223 17.6124C55.8069 17.7019 56.3044 17.7898 57.0926 17.7898C57.9962 17.7898 58.5729 17.6119 58.9481 17.4013C59.5477 17.0623 59.9988 16.6539 60.3441 16.177C60.3611 16.1535 60.3785 16.1302 60.3962 16.1071C60.8435 15.5257 61.1519 14.9334 61.3467 14.3245C61.5774 13.5779 61.6678 12.9554 61.6678 12.4409C61.6678 12.4195 61.6674 12.4004 61.6667 12.3833C61.6281 12.3698 61.5898 12.3555 61.5518 12.3404C61.3896 12.276 60.9491 12.1648 60.0767 12.1648C59.1973 12.1648 58.5959 12.3444 58.166 12.5872L58.162 12.5895C57.6122 12.8988 57.1434 13.3004 56.7419 13.8137C56.3324 14.3871 56.0298 14.9977 55.8259 15.655L55.8197 15.6747C55.5922 16.3904 55.5015 16.9985 55.5015 17.5136C55.5015 17.548 55.5025 17.5783 55.504 17.6048C55.5099 17.6073 55.516 17.6098 55.5223 17.6124Z" fill="#0C0706"/>
<path d="M3 27.4512L11.7804 4.20117H43.5734L41.2778 10.225H22.8563L21.7659 13.1137H36.3425L34.2765 18.6796H19.6999L18.6669 21.4273H37.4328L35.1373 27.4512H3Z" fill="currentColor"/>
<path fill-rule="evenodd" clip-rule="evenodd" d="M0.532258 29.1571C-0.0279489 28.3467 -0.154574 27.3129 0.193482 26.3913L8.97385 3.14128C9.41476 1.97378 10.5324 1.20117 11.7804 1.20117H43.5734C44.5601 1.20117 45.4838 1.68641 46.0437 2.49894C46.6036 3.31147 46.7281 4.34737 46.3767 5.26945L44.0812 11.2933C43.638 12.4564 42.5226 13.225 41.2778 13.225H39.3404C39.3288 13.5398 39.2674 13.8546 39.155 14.1576L37.569 18.4304C38.5041 18.4728 39.3691 18.95 39.9032 19.7251C40.4631 20.5376 40.5876 21.5735 40.2362 22.4956L37.9407 28.5194C37.4975 29.6826 36.382 30.4512 35.1373 30.4512H3.00002C2.01485 30.4512 1.09247 29.9675 0.532258 29.1571ZM18.6669 21.4273L19.6999 18.6796H34.2765L36.3425 13.1137H21.7659L22.8563 10.225H41.2778L43.5734 4.20117H11.7804L3.00002 27.4512H35.1373L37.4328 21.4273H18.6669Z" fill="#0C0706"/>
</svg>
