<svg width="219" height="60" viewBox="0 0 219 60" fill="none" xmlns="http://www.w3.org/2000/svg">
<path d="M186.031 59.5344C181.95 59.5344 178.299 58.5129 175.077 56.4701C171.855 54.4272 169.304 51.5381 167.425 47.8026C165.545 44.0087 164.605 39.5145 164.605 34.3198C164.605 29.5337 165.277 25.0686 166.619 20.9246C167.962 16.7805 169.922 13.1326 172.499 9.98077C175.077 6.82895 178.245 4.37752 182.004 2.62651C185.763 0.875504 190.058 0 194.891 0C199.294 0 203.188 0.817148 206.571 2.45142C209.954 4.02733 212.665 6.30364 214.706 9.28036C216.8 12.2571 218.008 15.7591 218.33 19.7864L200.932 22.588C200.932 20.5452 200.422 18.8234 199.402 17.4226C198.435 16.0218 196.851 15.3213 194.65 15.3213C193.092 15.3213 191.616 15.7591 190.219 16.6346C188.877 17.4517 187.669 18.6483 186.595 20.2242C185.575 21.7417 184.769 23.5803 184.178 25.7399C183.588 27.8994 183.292 30.2925 183.292 32.919C183.292 35.312 183.588 37.4133 184.178 39.2226C184.769 41.032 185.736 42.4328 187.078 43.4251C188.421 44.4173 190.219 44.9134 192.475 44.9134C193.871 44.9134 195.079 44.7091 196.099 44.3006C197.12 43.892 197.979 43.3375 198.677 42.6371C199.375 41.8783 199.912 41.0612 200.288 40.1857L200.932 38.6973H190.783L193.361 26.4403H218.008L210.437 58.6588H198.516L200.288 51.5C199.375 54.5351 200.986 51.042 199.482 53.1432C198.033 55.2444 196.207 56.8495 194.005 57.9584C191.804 59.009 189.145 59.5344 186.031 59.5344Z" fill="#FCA502"/>
<path d="M104.508 58.6577L116.832 0.874329H136.324L143.493 28.1025L145.345 36.2447H145.506L148.003 22.3242L152.594 0.874329H168.865L156.541 58.6577H137.291L129.8 32.3925L127.786 24.1628H127.625L125.37 37.2078L120.778 58.6577H104.508Z" fill="#FCA502"/>
<path d="M48.1719 58.6577L77.8937 0.874329H100.447L105.28 58.6577H87.64L87.3983 47.101H72.5776L67.3421 58.6577H48.1719ZM78.3771 34.4062H87.0761L86.8345 15.1451L78.3771 34.4062Z" fill="#FCA502"/>
<path d="M0 58.6577L12.3237 0.874329H40.8374C46.0998 0.874329 50.2614 2.10004 53.3222 4.55146C56.4367 6.9445 57.9939 10.3006 57.9939 14.6198C57.9939 17.7132 57.3496 20.3397 56.0608 22.4993C54.8257 24.6589 53.188 26.3807 51.1474 27.6648C49.1069 28.8905 46.8516 29.7076 44.3815 30.1162V30.2038C47.5497 30.4372 50.1272 31.5462 52.114 33.5307C54.1545 35.5152 55.1748 38.1417 55.1748 41.4102C55.1748 45.3208 54.2888 48.5602 52.5168 51.1283C50.7984 53.6381 48.3552 55.535 45.187 56.8191C42.0188 58.0448 38.3404 58.6577 34.152 58.6577H0ZM20.7812 45.35H30.2052C32.0846 45.35 33.5613 44.9998 34.6353 44.2994C35.7629 43.5406 36.3268 42.3441 36.3268 40.7098C36.3268 39.8927 36.1388 39.2215 35.7629 38.6962C35.4407 38.1125 34.9306 37.6747 34.2325 37.3829C33.5881 37.0911 32.7559 36.9451 31.7356 36.9451H22.6337L20.7812 45.35ZM25.5334 23.2873H32.9438C34.2325 23.2873 35.3065 23.1122 36.1657 22.762C37.0785 22.3534 37.7498 21.7989 38.1794 21.0985C38.6626 20.3981 38.9043 19.581 38.9043 18.6471C38.9043 17.4214 38.5015 16.4875 37.6961 15.8455C36.9443 15.2034 35.8703 14.8824 34.4742 14.8824H27.3055L25.5334 23.2873Z" fill="#FCA502"/>
</svg>
