<svg width="231" height="72" viewBox="0 0 231 72" fill="none" xmlns="http://www.w3.org/2000/svg">
<mask id="path-1-outside-1_96_65011" maskUnits="userSpaceOnUse" x="164.605" y="0" width="66" height="72" fill="black">
<rect fill="white" x="164.605" width="66" height="72"/>
<path d="M192.031 65.5344C187.95 65.5344 184.298 64.5129 181.077 62.4701C177.855 60.4272 175.304 57.5381 173.425 53.8026C171.545 50.0087 170.605 45.5145 170.605 40.3198C170.605 35.5337 171.277 31.0686 172.619 26.9246C173.962 22.7805 175.922 19.1326 178.499 15.9808C181.077 12.8289 184.245 10.3775 188.004 8.62651C191.763 6.8755 196.058 6 200.891 6C205.294 6 209.188 6.81715 212.571 8.45142C215.954 10.0273 218.665 12.3036 220.706 15.2804C222.8 18.2571 224.008 21.7591 224.33 25.7864L206.932 28.588C206.932 26.5452 206.422 24.8234 205.402 23.4226C204.435 22.0218 202.851 21.3213 200.65 21.3213C199.092 21.3213 197.616 21.7591 196.219 22.6346C194.877 23.4517 193.669 24.6483 192.595 26.2242C191.575 27.7417 190.769 29.5803 190.178 31.7399C189.588 33.8994 189.292 36.2925 189.292 38.919C189.292 41.312 189.588 43.4133 190.178 45.2226C190.769 47.032 191.736 48.4328 193.078 49.4251C194.421 50.4173 196.219 50.9134 198.475 50.9134C199.871 50.9134 201.079 50.7091 202.099 50.3006C203.12 49.892 203.979 49.3375 204.677 48.6371C205.375 47.8783 205.912 47.0612 206.288 46.1857L206.932 44.6973H196.783L199.361 32.4403H224.008L216.437 64.6588H204.516L207.577 49.6877L209.107 51.4387C208.194 54.4738 206.986 57.042 205.482 59.1432C204.033 61.2444 202.207 62.8495 200.005 63.9584C197.804 65.009 195.145 65.5344 192.031 65.5344Z"/>
</mask>
<path d="M192.031 65.5344C187.95 65.5344 184.298 64.5129 181.077 62.4701C177.855 60.4272 175.304 57.5381 173.425 53.8026C171.545 50.0087 170.605 45.5145 170.605 40.3198C170.605 35.5337 171.277 31.0686 172.619 26.9246C173.962 22.7805 175.922 19.1326 178.499 15.9808C181.077 12.8289 184.245 10.3775 188.004 8.62651C191.763 6.8755 196.058 6 200.891 6C205.294 6 209.188 6.81715 212.571 8.45142C215.954 10.0273 218.665 12.3036 220.706 15.2804C222.8 18.2571 224.008 21.7591 224.33 25.7864L206.932 28.588C206.932 26.5452 206.422 24.8234 205.402 23.4226C204.435 22.0218 202.851 21.3213 200.65 21.3213C199.092 21.3213 197.616 21.7591 196.219 22.6346C194.877 23.4517 193.669 24.6483 192.595 26.2242C191.575 27.7417 190.769 29.5803 190.178 31.7399C189.588 33.8994 189.292 36.2925 189.292 38.919C189.292 41.312 189.588 43.4133 190.178 45.2226C190.769 47.032 191.736 48.4328 193.078 49.4251C194.421 50.4173 196.219 50.9134 198.475 50.9134C199.871 50.9134 201.079 50.7091 202.099 50.3006C203.12 49.892 203.979 49.3375 204.677 48.6371C205.375 47.8783 205.912 47.0612 206.288 46.1857L206.932 44.6973H196.783L199.361 32.4403H224.008L216.437 64.6588H204.516L207.577 49.6877L209.107 51.4387C208.194 54.4738 206.986 57.042 205.482 59.1432C204.033 61.2444 202.207 62.8495 200.005 63.9584C197.804 65.009 195.145 65.5344 192.031 65.5344Z" fill="#FCA502"/>
<path d="M192.031 65.5344C187.95 65.5344 184.298 64.5129 181.077 62.4701C177.855 60.4272 175.304 57.5381 173.425 53.8026C171.545 50.0087 170.605 45.5145 170.605 40.3198C170.605 35.5337 171.277 31.0686 172.619 26.9246C173.962 22.7805 175.922 19.1326 178.499 15.9808C181.077 12.8289 184.245 10.3775 188.004 8.62651C191.763 6.8755 196.058 6 200.891 6C205.294 6 209.188 6.81715 212.571 8.45142C215.954 10.0273 218.665 12.3036 220.706 15.2804C222.8 18.2571 224.008 21.7591 224.33 25.7864L206.932 28.588C206.932 26.5452 206.422 24.8234 205.402 23.4226C204.435 22.0218 202.851 21.3213 200.65 21.3213C199.092 21.3213 197.616 21.7591 196.219 22.6346C194.877 23.4517 193.669 24.6483 192.595 26.2242C191.575 27.7417 190.769 29.5803 190.178 31.7399C189.588 33.8994 189.292 36.2925 189.292 38.919C189.292 41.312 189.588 43.4133 190.178 45.2226C190.769 47.032 191.736 48.4328 193.078 49.4251C194.421 50.4173 196.219 50.9134 198.475 50.9134C199.871 50.9134 201.079 50.7091 202.099 50.3006C203.12 49.892 203.979 49.3375 204.677 48.6371C205.375 47.8783 205.912 47.0612 206.288 46.1857L206.932 44.6973H196.783L199.361 32.4403H224.008L216.437 64.6588H204.516L207.577 49.6877L209.107 51.4387C208.194 54.4738 206.986 57.042 205.482 59.1432C204.033 61.2444 202.207 62.8495 200.005 63.9584C197.804 65.009 195.145 65.5344 192.031 65.5344Z" stroke="#0C0706" stroke-width="12" stroke-linejoin="round" mask="url(#path-1-outside-1_96_65011)"/>
<mask id="path-2-outside-2_96_65011" maskUnits="userSpaceOnUse" x="104.508" y="0.874023" width="77" height="70" fill="black">
<rect fill="white" x="104.508" y="0.874023" width="77" height="70"/>
<path d="M110.508 64.6574L122.832 6.87402H142.324L149.493 34.1022L151.345 42.2444H151.506L154.003 28.3239L158.594 6.87402H174.865L162.541 64.6574H143.291L135.8 38.3922L133.786 30.1625H133.625L131.37 43.2075L126.778 64.6574H110.508Z"/>
</mask>
<path d="M110.508 64.6574L122.832 6.87402H142.324L149.493 34.1022L151.345 42.2444H151.506L154.003 28.3239L158.594 6.87402H174.865L162.541 64.6574H143.291L135.8 38.3922L133.786 30.1625H133.625L131.37 43.2075L126.778 64.6574H110.508Z" fill="#FCA502"/>
<path d="M110.508 64.6574L122.832 6.87402H142.324L149.493 34.1022L151.345 42.2444H151.506L154.003 28.3239L158.594 6.87402H174.865L162.541 64.6574H143.291L135.8 38.3922L133.786 30.1625H133.625L131.37 43.2075L126.778 64.6574H110.508Z" stroke="#0C0706" stroke-width="12" stroke-linejoin="round" mask="url(#path-2-outside-2_96_65011)"/>
<mask id="path-3-outside-3_96_65011" maskUnits="userSpaceOnUse" x="48.1719" y="0.874023" width="70" height="70" fill="black">
<rect fill="white" x="48.1719" y="0.874023" width="70" height="70"/>
<path d="M54.1719 64.6574L83.8937 6.87402H106.447L111.28 64.6574H93.64L93.3983 53.1007H78.5776L73.3421 64.6574H54.1719ZM84.3771 40.4059H93.0761L92.8345 21.1448L84.3771 40.4059Z"/>
</mask>
<path d="M54.1719 64.6574L83.8937 6.87402H106.447L111.28 64.6574H93.64L93.3983 53.1007H78.5776L73.3421 64.6574H54.1719ZM84.3771 40.4059H93.0761L92.8345 21.1448L84.3771 40.4059Z" fill="#FCA502"/>
<path d="M54.1719 64.6574L83.8937 6.87402H106.447L111.28 64.6574H93.64L93.3983 53.1007H78.5776L73.3421 64.6574H54.1719ZM84.3771 40.4059H93.0761L92.8345 21.1448L84.3771 40.4059Z" stroke="#0C0706" stroke-width="12" stroke-linejoin="round" mask="url(#path-3-outside-3_96_65011)"/>
<mask id="path-4-outside-4_96_65011" maskUnits="userSpaceOnUse" x="0" y="0.874023" width="70" height="70" fill="black">
<rect fill="white" y="0.874023" width="70" height="70"/>
<path d="M6 64.6574L18.3237 6.87402H46.8374C52.0998 6.87402 56.2614 8.09974 59.3222 10.5511C62.4367 12.9442 63.9939 16.3003 63.9939 20.6195C63.9939 23.7129 63.3496 26.3394 62.0608 28.499C60.8257 30.6586 59.188 32.3804 57.1474 33.6645C55.1069 34.8902 52.8516 35.7073 50.3815 36.1159V36.2034C53.5497 36.4369 56.1272 37.5459 58.114 39.5304C60.1545 41.5149 61.1748 44.1414 61.1748 47.4099C61.1748 51.3205 60.2888 54.5599 58.5168 57.128C56.7984 59.6378 54.3552 61.5347 51.187 62.8188C48.0188 64.0445 44.3404 64.6574 40.152 64.6574H6ZM26.7812 51.3497H36.2052C38.0846 51.3497 39.5613 50.9995 40.6353 50.2991C41.7629 49.5403 42.3268 48.3438 42.3268 46.7095C42.3268 45.8924 42.1388 45.2212 41.7629 44.6958C41.4407 44.1122 40.9306 43.6744 40.2325 43.3826C39.5881 43.0908 38.7559 42.9448 37.7356 42.9448H28.6337L26.7812 51.3497ZM31.5334 29.287H38.9438C40.2325 29.287 41.3065 29.1119 42.1657 28.7617C43.0785 28.3531 43.7498 27.7986 44.1794 27.0982C44.6626 26.3978 44.9043 25.5807 44.9043 24.6468C44.9043 23.4211 44.5015 22.4872 43.6961 21.8452C42.9443 21.2031 41.8703 20.8821 40.4742 20.8821H33.3055L31.5334 29.287Z"/>
</mask>
<path d="M6 64.6574L18.3237 6.87402H46.8374C52.0998 6.87402 56.2614 8.09974 59.3222 10.5511C62.4367 12.9442 63.9939 16.3003 63.9939 20.6195C63.9939 23.7129 63.3496 26.3394 62.0608 28.499C60.8257 30.6586 59.188 32.3804 57.1474 33.6645C55.1069 34.8902 52.8516 35.7073 50.3815 36.1159V36.2034C53.5497 36.4369 56.1272 37.5459 58.114 39.5304C60.1545 41.5149 61.1748 44.1414 61.1748 47.4099C61.1748 51.3205 60.2888 54.5599 58.5168 57.128C56.7984 59.6378 54.3552 61.5347 51.187 62.8188C48.0188 64.0445 44.3404 64.6574 40.152 64.6574H6ZM26.7812 51.3497H36.2052C38.0846 51.3497 39.5613 50.9995 40.6353 50.2991C41.7629 49.5403 42.3268 48.3438 42.3268 46.7095C42.3268 45.8924 42.1388 45.2212 41.7629 44.6958C41.4407 44.1122 40.9306 43.6744 40.2325 43.3826C39.5881 43.0908 38.7559 42.9448 37.7356 42.9448H28.6337L26.7812 51.3497ZM31.5334 29.287H38.9438C40.2325 29.287 41.3065 29.1119 42.1657 28.7617C43.0785 28.3531 43.7498 27.7986 44.1794 27.0982C44.6626 26.3978 44.9043 25.5807 44.9043 24.6468C44.9043 23.4211 44.5015 22.4872 43.6961 21.8452C42.9443 21.2031 41.8703 20.8821 40.4742 20.8821H33.3055L31.5334 29.287Z" fill="#FCA502"/>
<path d="M6 64.6574L18.3237 6.87402H46.8374C52.0998 6.87402 56.2614 8.09974 59.3222 10.5511C62.4367 12.9442 63.9939 16.3003 63.9939 20.6195C63.9939 23.7129 63.3496 26.3394 62.0608 28.499C60.8257 30.6586 59.188 32.3804 57.1474 33.6645C55.1069 34.8902 52.8516 35.7073 50.3815 36.1159V36.2034C53.5497 36.4369 56.1272 37.5459 58.114 39.5304C60.1545 41.5149 61.1748 44.1414 61.1748 47.4099C61.1748 51.3205 60.2888 54.5599 58.5168 57.128C56.7984 59.6378 54.3552 61.5347 51.187 62.8188C48.0188 64.0445 44.3404 64.6574 40.152 64.6574H6ZM26.7812 51.3497H36.2052C38.0846 51.3497 39.5613 50.9995 40.6353 50.2991C41.7629 49.5403 42.3268 48.3438 42.3268 46.7095C42.3268 45.8924 42.1388 45.2212 41.7629 44.6958C41.4407 44.1122 40.9306 43.6744 40.2325 43.3826C39.5881 43.0908 38.7559 42.9448 37.7356 42.9448H28.6337L26.7812 51.3497ZM31.5334 29.287H38.9438C40.2325 29.287 41.3065 29.1119 42.1657 28.7617C43.0785 28.3531 43.7498 27.7986 44.1794 27.0982C44.6626 26.3978 44.9043 25.5807 44.9043 24.6468C44.9043 23.4211 44.5015 22.4872 43.6961 21.8452C42.9443 21.2031 41.8703 20.8821 40.4742 20.8821H33.3055L31.5334 29.287Z" stroke="#0C0706" stroke-width="12" stroke-linejoin="round" mask="url(#path-4-outside-4_96_65011)"/>
</svg>
