<svg width="300" height="95" viewBox="0 0 300 95" fill="none" xmlns="http://www.w3.org/2000/svg">
<path d="M244.107 91.4448C234.241 91.4448 226.624 88.4059 221.256 82.328C215.889 76.1712 213.205 67.9621 213.205 57.7008C213.205 47.5184 215.376 38.2832 219.717 29.9952C224.058 21.6283 230.018 15.0373 237.595 10.2224C245.173 5.40747 253.579 3 262.815 3C270.471 3 276.865 4.34186 281.995 7.0256C287.205 9.70933 290.954 13.3403 293.243 17.9184C295.611 22.4176 296.598 27.4299 296.203 32.9552H274.418C274.181 29.3243 273.076 26.3248 271.103 23.9568C269.129 21.5888 265.498 20.4048 260.21 20.4048C255.237 20.4048 250.738 21.9835 246.712 25.1408C242.766 28.2981 239.648 32.6789 237.359 38.2832C235.149 43.8875 234.043 50.2021 234.043 57.2272C234.043 68.4357 239.293 74.04 249.791 74.04C254.842 74.04 259.263 72.7376 263.051 70.1328C266.919 67.4491 269.327 64.0549 270.274 59.9504H254.171L257.131 44.5584H295.256L286.495 89.5504H271.221V78.776H270.984C268.143 82.7227 264.472 85.8405 259.973 88.1296C255.553 90.3397 250.264 91.4448 244.107 91.4448Z" fill="white"/>
<path d="M244.107 91.4448C234.241 91.4448 226.624 88.4059 221.256 82.328C215.889 76.1712 213.205 67.9621 213.205 57.7008C213.205 47.5184 215.376 38.2832 219.717 29.9952C224.058 21.6283 230.018 15.0373 237.595 10.2224C245.173 5.40747 253.579 3 262.815 3C270.471 3 276.865 4.34186 281.995 7.0256C287.205 9.70933 290.954 13.3403 293.243 17.9184C295.611 22.4176 296.598 27.4299 296.203 32.9552H274.418C274.181 29.3243 273.076 26.3248 271.103 23.9568C269.129 21.5888 265.498 20.4048 260.21 20.4048C255.237 20.4048 250.738 21.9835 246.712 25.1408C242.766 28.2981 239.648 32.6789 237.359 38.2832C235.149 43.8875 234.043 50.2021 234.043 57.2272C234.043 68.4357 239.293 74.04 249.791 74.04C254.842 74.04 259.263 72.7376 263.051 70.1328C266.919 67.4491 269.327 64.0549 270.274 59.9504H254.171L257.131 44.5584H295.256L286.495 89.5504H271.221V78.776H270.984C268.143 82.7227 264.472 85.8405 259.973 88.1296C255.553 90.3397 250.264 91.4448 244.107 91.4448Z" fill="#DEFE04"/>
<path fillRule="evenodd" clipRule="evenodd" d="M219.008 84.3138L218.995 84.2994C213.039 77.4671 210.205 68.495 210.205 57.7008C210.205 47.0794 212.473 37.3618 217.057 28.6085C221.629 19.7986 227.941 12.8025 235.987 7.69033C244.059 2.56066 253.027 0 262.815 0C270.802 0 277.704 1.3972 283.378 4.36302C289.054 7.28881 293.299 11.3369 295.913 16.5487C298.554 21.5797 299.626 27.1484 299.196 33.1689C299.084 34.7389 297.777 35.9552 296.203 35.9552H274.418C272.837 35.9552 271.527 34.7281 271.424 33.1504C271.221 30.0353 270.295 27.6742 268.798 25.8773C267.696 24.5544 265.22 23.4048 260.21 23.4048C255.934 23.4048 252.086 24.7425 248.575 27.4924C245.108 30.2694 242.274 34.1901 240.143 39.4006C238.096 44.5973 237.043 50.5245 237.043 57.2272C237.043 62.4161 238.262 65.7494 240.17 67.786C242.043 69.7856 245.056 71.04 249.791 71.04C254.296 71.04 258.108 69.889 261.347 67.6643C263.357 66.2684 264.852 64.6989 265.888 62.9504H254.171C253.277 62.9504 252.428 62.5509 251.859 61.8609C251.289 61.171 251.056 60.2626 251.225 59.3839L254.185 43.9919C254.457 42.5793 255.693 41.5584 257.131 41.5584H295.256C296.152 41.5584 297.002 41.959 297.571 42.6506C298.141 43.3421 298.372 44.2522 298.201 45.1318L289.439 90.1238C289.165 91.5331 287.93 92.5504 286.495 92.5504H271.221C269.564 92.5504 268.221 91.2073 268.221 89.5504V86.208C266.159 87.9856 263.861 89.5177 261.333 90.8034L261.315 90.8129C256.388 93.2762 250.618 94.4448 244.107 94.4448C233.583 94.4448 225.066 91.1744 219.008 84.3138ZM268.221 82.0856C269.216 81.0561 270.137 79.9529 270.984 78.776H271.221V89.5504H286.495L295.256 44.5584H257.131L254.171 59.9504H270.274C270.032 60.9966 269.696 61.9966 269.265 62.9504C268.005 65.739 265.933 68.1331 263.051 70.1328C259.263 72.7376 254.842 74.04 249.791 74.04C239.293 74.04 234.043 68.4357 234.043 57.2272C234.043 50.2021 235.149 43.8875 237.359 38.2832C239.648 32.6789 242.766 28.2981 246.712 25.1408C250.738 21.9835 255.237 20.4048 260.21 20.4048C265.498 20.4048 269.129 21.5888 271.103 23.9568C273.076 26.3248 274.181 29.3243 274.418 32.9552H296.203C296.598 27.4299 295.611 22.4176 293.243 17.9184C290.954 13.3403 287.205 9.70933 281.995 7.0256C276.865 4.34187 270.471 3 262.815 3C253.579 3 245.173 5.40747 237.595 10.2224C230.018 15.0373 224.058 21.6283 219.717 29.9952C215.376 38.2832 213.205 47.5184 213.205 57.7008C213.205 67.9621 215.889 76.1712 221.256 82.328C226.624 88.4059 234.241 91.4448 244.107 91.4448C250.264 91.4448 255.553 90.3397 259.973 88.1296C263.131 86.5231 265.88 84.5085 268.221 82.0856Z" fill="#151611"/>
<path d="M154.587 4.89453H175.662L195.435 55.2145H195.908L205.735 4.89453H227.047L210.59 89.5505H189.515L169.742 39.2305H169.268L159.441 89.5505H138.129L154.587 4.89453Z" fill="white"/>
<path d="M154.587 4.89453H175.662L195.435 55.2145H195.908L205.735 4.89453H227.047L210.59 89.5505H189.515L169.742 39.2305H169.268L159.441 89.5505H138.129L154.587 4.89453Z" fill="#DEFE04"/>
<path fillRule="evenodd" clipRule="evenodd" d="M151.642 4.32203C151.916 2.91231 153.15 1.89453 154.587 1.89453H175.662C176.895 1.89453 178.003 2.64942 178.454 3.79737L194.779 45.3437L202.791 4.31951C203.066 2.91097 204.3 1.89453 205.735 1.89453H227.047C227.943 1.89453 228.792 2.29498 229.362 2.98633C229.932 3.67767 230.163 4.58755 229.992 5.46703L213.535 90.123C213.261 91.5328 212.026 92.5505 210.59 92.5505H189.515C188.281 92.5505 187.173 91.7956 186.722 90.6477L170.397 49.1014L162.385 90.1256C162.11 91.5341 160.876 92.5505 159.441 92.5505H138.129C137.233 92.5505 136.384 92.1501 135.814 91.4587C135.244 90.7674 135.013 89.8575 135.184 88.978L151.642 4.32203ZM169.268 39.2305H169.742L189.515 89.5505H210.59L227.047 4.89453H205.735L195.908 55.2145H195.435L175.662 4.89453H154.587L138.129 89.5505H159.441L169.268 39.2305Z" fill="#151611"/>
<path d="M110.328 4.89453H131.995L147.15 89.5505H125.009L122.996 71.9089H93.9883L85.1083 89.5505H63.0859L110.328 4.89453ZM121.457 55.6881L117.905 24.4305H117.668L102.04 55.6881H121.457Z" fill="white"/>
<path d="M110.328 4.89453H131.995L147.15 89.5505H125.009L122.996 71.9089H93.9883L85.1083 89.5505H63.0859L110.328 4.89453ZM121.457 55.6881L117.905 24.4305H117.668L102.04 55.6881H121.457Z" fill="#DEFE04"/>
<path fillRule="evenodd" clipRule="evenodd" d="M107.708 3.43263C108.238 2.48302 109.24 1.89453 110.328 1.89453H131.995C133.448 1.89453 134.692 2.93569 134.948 4.36587L150.103 89.0219C150.259 89.8961 150.021 90.7948 149.451 91.4759C148.881 92.157 148.038 92.5505 147.15 92.5505H125.009C123.484 92.5505 122.201 91.4061 122.028 89.8906L120.319 74.9089H95.8369L87.788 90.8994C87.2784 91.9118 86.2418 92.5505 85.1083 92.5505H63.0859C62.022 92.5505 61.0376 91.987 60.4989 91.0695C59.9602 90.1519 59.9478 89.0177 60.4662 88.0886L107.708 3.43263ZM93.9883 71.9089H122.996L125.009 89.5505H147.15L131.995 4.89453H110.328L63.0859 89.5505H85.1083L93.9883 71.9089ZM117.668 24.4305H117.905L121.457 55.6881H102.04L117.668 24.4305ZM116.022 34.4309L106.894 52.6881H118.097L116.022 34.4309Z" fill="#151611"/>
<path d="M19.4576 4.89453H59.3584C67.2517 4.89453 73.2507 6.4732 77.3552 9.63054C81.4597 12.7879 83.512 17.2476 83.512 23.0097C83.512 28.5351 81.8149 33.1921 78.4208 36.9809C75.0267 40.7697 70.8037 43.2561 65.752 44.4401V44.6769C75.0661 46.7292 79.7232 52.3729 79.7232 61.6081C79.7232 66.9756 78.3419 71.7905 75.5792 76.0529C72.8955 80.3153 69.0277 83.6305 63.976 85.9985C58.9243 88.3665 53.0832 89.5505 46.4528 89.5505H3L19.4576 4.89453ZM42.5456 72.1457C47.7552 72.1457 51.7413 71.1591 54.504 69.1857C57.3456 67.2124 58.7664 64.2524 58.7664 60.3057C58.7664 57.1484 57.8192 55.0172 55.9248 53.9121C54.1093 52.7281 51.0704 52.1361 46.808 52.1361H31.5344L27.7456 72.1457H42.5456ZM48.3472 39.1121C52.2939 39.1121 55.4512 38.2439 57.8192 36.5073C60.2661 34.7708 61.4896 32.2449 61.4896 28.9297C61.4896 26.4828 60.7003 24.7857 59.1216 23.8385C57.6219 22.8124 55.2539 22.2993 52.0176 22.2993H37.336L34.1392 39.1121H48.3472Z" fill="white"/>
<path d="M19.4576 4.89453H59.3584C67.2517 4.89453 73.2507 6.4732 77.3552 9.63054C81.4597 12.7879 83.512 17.2476 83.512 23.0097C83.512 28.5351 81.8149 33.1921 78.4208 36.9809C75.0267 40.7697 70.8037 43.2561 65.752 44.4401V44.6769C75.0661 46.7292 79.7232 52.3729 79.7232 61.6081C79.7232 66.9756 78.3419 71.7905 75.5792 76.0529C72.8955 80.3153 69.0277 83.6305 63.976 85.9985C58.9243 88.3665 53.0832 89.5505 46.4528 89.5505H3L19.4576 4.89453ZM42.5456 72.1457C47.7552 72.1457 51.7413 71.1591 54.504 69.1857C57.3456 67.2124 58.7664 64.2524 58.7664 60.3057C58.7664 57.1484 57.8192 55.0172 55.9248 53.9121C54.1093 52.7281 51.0704 52.1361 46.808 52.1361H31.5344L27.7456 72.1457H42.5456ZM48.3472 39.1121C52.2939 39.1121 55.4512 38.2439 57.8192 36.5073C60.2661 34.7708 61.4896 32.2449 61.4896 28.9297C61.4896 26.4828 60.7003 24.7857 59.1216 23.8385C57.6219 22.8124 55.2539 22.2993 52.0176 22.2993H37.336L34.1392 39.1121H48.3472Z" fill="#DEFE04"/>
<path fillRule="evenodd" clipRule="evenodd" d="M16.5128 4.32203C16.7868 2.91231 18.0215 1.89453 19.4576 1.89453H59.3584C67.5848 1.89453 74.3439 3.52923 79.1844 7.25266C84.1175 11.0474 86.512 16.4364 86.512 23.0097C86.512 29.2047 84.5866 34.5943 80.6553 38.9827C78.6299 41.2436 76.335 43.0938 73.7835 44.5297C75.6231 45.6072 77.2215 46.9365 78.5444 48.5395C81.4224 52.0274 82.7232 56.4808 82.7232 61.6081C82.7232 67.5132 81.1962 72.8954 78.1077 77.6677C75.0859 82.4597 70.757 86.1332 65.2493 88.7149C59.731 91.3016 53.4414 92.5505 46.4528 92.5505H3.00003C2.10407 92.5505 1.25502 92.1501 0.685128 91.4587C0.115242 90.7674 -0.115819 89.8575 0.0551578 88.978L16.5128 4.32203ZM75.5792 76.0529C78.3419 71.7905 79.7232 66.9756 79.7232 61.6081C79.7232 54.0479 76.6023 48.8946 70.3604 46.148C68.9935 45.5466 67.4769 45.0605 65.8106 44.6899C65.7911 44.6856 65.7716 44.6812 65.752 44.6769V44.4401C65.7704 44.4358 65.7887 44.4315 65.8071 44.4272C67.4027 44.0498 68.9154 43.5421 70.3452 42.9042C73.4205 41.5323 76.1124 39.5578 78.4208 36.9809C81.815 33.1921 83.512 28.5351 83.512 23.0097C83.512 17.2476 81.4598 12.7879 77.3552 9.63054C73.2507 6.4732 67.2518 4.89453 59.3584 4.89453H19.4576L3.00003 89.5505H46.4528C53.0832 89.5505 58.9243 88.3665 63.976 85.9985C69.0278 83.6305 72.8955 80.3153 75.5792 76.0529ZM52.7603 66.7445L52.7928 66.7216C54.7038 65.3945 55.7664 63.4298 55.7664 60.3057C55.7664 57.6978 55.0126 56.8531 54.4132 56.5035C54.3702 56.4784 54.3278 56.4522 54.286 56.425C53.2402 55.7429 50.9562 55.1361 46.808 55.1361H34.0197L31.367 69.1457H42.5456C47.443 69.1457 50.7126 68.2072 52.7603 66.7445ZM27.7456 72.1457L31.5344 52.1361H46.808C51.0704 52.1361 54.1094 52.7281 55.9248 53.9121C57.8192 55.0172 58.7664 57.1484 58.7664 60.3057C58.7664 64.2524 57.3456 67.2124 54.504 69.1857C51.7414 71.1591 47.7552 72.1457 42.5456 72.1457H27.7456ZM56.0653 34.0734C56.0712 34.0692 56.0771 34.065 56.083 34.0608C57.6451 32.9522 58.4896 31.3916 58.4896 28.9297C58.4896 27.1441 57.961 26.6407 57.5781 26.411C57.527 26.3803 57.4768 26.3481 57.4276 26.3145C56.684 25.8057 55.0625 25.2993 52.0176 25.2993H39.8194L37.7634 36.1121H48.3472C51.8726 36.1121 54.3426 35.3366 56.0451 34.0881C56.0518 34.0832 56.0586 34.0783 56.0653 34.0734ZM48.3472 39.1121C52.2939 39.1121 55.4512 38.2439 57.8192 36.5073C60.2662 34.7708 61.4896 32.2449 61.4896 28.9297C61.4896 26.4828 60.7003 24.7857 59.1216 23.8385C57.6219 22.8124 55.2539 22.2993 52.0176 22.2993H37.336L34.1392 39.1121H48.3472Z" fill="#151611"/>
</svg>
