<svg width="137" height="39" viewBox="0 0 137 39" fill="none" xmlns="http://www.w3.org/2000/svg">
<path d="M81.6914 30.4924L81.6914 30.4924L81.6991 30.501C83.7643 32.7935 86.5248 34.5176 89.9073 35.7154C93.2935 36.9146 97.0913 37.5 101.28 37.5C104.457 37.5 107.233 37.2015 109.581 36.5759L109.6 36.5704C110.511 36.3143 111.371 36.0108 112.178 35.6577C112.202 35.9116 112.291 36.1588 112.441 36.3739C112.722 36.7755 113.181 37.0147 113.671 37.0147H125.502C126.106 37.0147 126.651 36.6529 126.885 36.0965L134.399 18.2376C134.594 17.7745 134.544 17.2446 134.266 16.826C133.988 16.4075 133.519 16.1559 133.017 16.1559H125.751L133.471 15.4616C133.881 15.4248 134.257 15.2211 134.513 14.8984C134.768 14.5757 134.88 14.1623 134.821 13.755C134.438 11.0799 132.997 8.81745 130.679 6.97511C128.444 5.15642 125.543 3.81865 122.049 2.90887C118.538 1.96232 114.541 1.5 110.074 1.5C105.179 1.5 100.785 1.99485 96.9053 3.00421C93.0468 4.00808 89.7348 5.42866 87.004 7.29366C84.2916 9.14608 82.1786 11.3254 80.7167 13.8459C79.2518 16.3714 78.5156 19.106 78.5156 22.0235C78.5156 25.2599 79.5762 28.1078 81.6914 30.4924ZM105.997 25.95H111.514C111.334 26 111.145 26.0475 110.945 26.092C110.069 26.288 108.985 26.3956 107.675 26.3956C105.536 26.3956 103.97 26.1294 102.892 25.6841C101.788 25.2285 101.121 24.6415 100.736 23.9842C100.303 23.242 100.062 22.3459 100.062 21.2471C100.062 19.9984 100.312 18.9006 100.789 17.9274C101.282 16.9197 101.949 16.0707 102.794 15.3673C103.717 14.6118 104.756 14.0365 105.92 13.6408L105.92 13.6408L105.933 13.6363C107.151 13.2097 108.448 12.9926 109.834 12.9926C111.912 12.9926 113.053 13.3756 113.607 13.8233C113.617 13.8315 113.627 13.8397 113.638 13.8477C114.334 14.3814 114.569 14.9184 114.569 15.5206C114.569 15.7425 114.618 15.9591 114.71 16.1559H108.555C107.93 16.1559 107.371 16.5428 107.151 17.1273L104.593 23.9214C104.419 24.3822 104.483 24.8987 104.763 25.3036C105.043 25.7084 105.504 25.95 105.997 25.95Z" fill="#FCA502" stroke="#0C0706" stroke-width="3" stroke-linejoin="round"/>
<path d="M85.6494 4.02047C85.8254 3.55938 85.7634 3.04118 85.4835 2.63467C85.2036 2.22815 84.7416 1.98535 84.2481 1.98535H65.6217C64.9998 1.98535 64.4423 2.36919 64.2204 2.95023L51.9893 34.9796C51.8132 35.4407 51.8753 35.9589 52.1552 36.3654C52.4351 36.772 52.8971 37.0148 53.3906 37.0148H72.017C72.639 37.0148 73.1965 36.6309 73.4183 36.0499L85.6494 4.02047Z" fill="#FCA502" stroke="#0C0706" stroke-width="3" stroke-linejoin="round"/>
<path d="M1.5987 34.9796C1.42262 35.4407 1.48464 35.9589 1.76455 36.3654C2.04446 36.772 2.50644 37.0148 3 37.0148H36.8952C41.1295 37.0148 44.8905 36.6691 48.164 35.9618L48.1784 35.9586C51.4504 35.218 54.1189 34.0943 56.0676 32.5055C58.159 30.8118 59.2599 28.5964 59.2599 25.9545C59.2599 23.44 57.7956 21.5515 55.4455 20.2727C55.0898 20.0747 54.7199 19.8918 54.336 19.7237C56.4777 18.9615 58.2775 17.9182 59.676 16.5562C61.243 15.0843 62.0578 13.239 62.0578 11.1045C62.0578 7.87194 59.8964 5.59998 56.5234 4.1497C53.2157 2.67279 48.8513 1.98535 43.5303 1.98535H15.2311C14.6091 1.98535 14.0517 2.36919 13.8298 2.95023L1.5987 34.9796ZM37.4272 25.5045C37.4665 25.5443 37.5081 25.5819 37.5516 25.6171C37.545 25.6968 37.5217 25.7352 37.4874 25.7758C37.4243 25.8506 37.255 25.9976 36.8542 26.1492C36.0247 26.4497 34.7609 26.6383 32.978 26.6383H25.8295L26.4841 24.9795H34.4969C35.444 24.9795 36.1339 25.0566 36.6073 25.1763L36.6341 25.1828C37.194 25.3136 37.3887 25.4656 37.4272 25.5045ZM39.9485 13.5297C39.9259 13.548 39.9038 13.567 39.8823 13.5866C39.7204 13.7339 39.3334 13.9599 38.5455 14.1586C37.8412 14.3172 36.9008 14.4089 35.6961 14.4089H30.511L31.1373 12.7501H37.215C38.509 12.7501 39.3147 12.9221 39.7668 13.1378C39.7787 13.1434 39.7906 13.1489 39.8026 13.1542C39.9971 13.2408 40.082 13.3121 40.1117 13.3416C40.1116 13.3455 40.1113 13.3482 40.1111 13.3498L40.1106 13.353L40.11 13.3548C40.1096 13.3559 40.1085 13.3585 40.1063 13.3628C40.0983 13.3779 40.0625 13.4375 39.9485 13.5297Z" fill="#FCA502" stroke="#0C0706" stroke-width="3" stroke-linejoin="round"/>
</svg>
