<svg xmlns="http://www.w3.org/2000/svg" fill="currentColor" viewBox="23.937 95.244 236.701 92.141"><path fill-rule="evenodd" d="m75.183 95.244 31.359 92.141H23.937V95.26zm.294 46.452c-2.037-1.555-2.991.012-4.273-.092-1.084-.086-2.1-1.836-2.938-1.418-1.601.815.642 3.695 1.615 4.283.866.52 1.958.998 2.22 1.119 1.287.602 1.799 1.512 1.96 2.934.042.326 0 1.07-.08 1.416-.586 2.492-4.952 4.756-7.46 3.043-1.18-.81-2.258-1.854-2.631-3.703-.675-3.276-3.04-5.684-3.797-8.89-.461-1.946-.802-4.001-1.31-5.96-.517-2.025-1.05-4.031-1.473-5.871-.387-1.711-1.2-4.267-1.79-5.826-2.394-6.251-3.476-5.797-3.476-5.797s.872 1.735 4.043 17.059c.13.627 1.283 7.377 2.125 9.599.3.797.826 2.498 1.172 3.25 1.009 2.195 3.672 5.523 3.848 8.523.1 1.735.299 3.17.34 4.483.025.385.195 1.949.445 2.644.65 1.83 5.9 7.735 11.474 7.735v-4.475c-5.54 0-10.755-3.103-10.884-3.43-.08-.146.288-2.263.663-3.205.725-1.822 2.094-3.488 4.5-3.666 2.682-.193 4.302.586 5.72.586zm-24.05-16.24c-.203 3.352-5.39 7.934-7.014 10.87-.796 1.446-1.768 3.927-2.02 5.364-.69 3.998.186 6.482 1.16 8.822 1.717 4.113-.231 5.625 1.11 4.79 1.66-1.352 1.409-4.51 1.286-6.48-.096-1.6-.204-3.417.039-5.324.46-3.565 2.62-7.394 4.463-10.07 2.189-3.191 1.394-6.492.976-7.972m1.045 9.517s.553 2.654-1.79 9.48c-6.124 17.853 5.576 19.545 8.907 23.742 0 0 1.289-1.818-4.017-7.639-1.938-2.126-3.686-6.812-2.163-13.505 2.202-9.69-.937-12.078-.937-12.078M40.89 123.268c-.28-1.055-.365-1.998-.304-2.84.283-4.196 4.093-5.894 5.042-6.519 0 0 1.713-1.173 1.934-2.357 0 0 1.754 4.415-2.268 6.944-2.041 1.286-3.427 2.792-4.404 4.772m9.607-4.055c.217.426 1.796 2.737-4.67 8.075-6.455 5.33-4.439 9.14-4.439 9.14s-6.89-3.832 1.046-10.453c7.934-6.616 6.308-7.957 6.308-7.957s1.136-.055 1.755 1.195m11.875 3.612c.094-.25.23-.05.512-.227.301-.285.611-.753 1.101-.91.352-.107.834-.056 1.163.07.22.055.086.618-.078.762-.349.258-1.382-.168-1.382.606.043 1.269 1.715-.04 2.59-.004.426 3.096-4.667 2.244-3.906-.297m-3.48-1.568c1.117.146 1.828 3.63 4.412 4.388 1.9.555 3.92.254 4.368 1.397-.872.463-.185 1.996.692 1.744.724-2.035 1.088-9.905-9.472-7.53"/><path d="m120.896 123.19-6.078 17.64h-3.612l-6.078-17.64h3.27l4.614 13.393 4.614-13.394zm4.799-1.714h.396v19.09h-3.085V121.74zm10.494 13.552c-1.437 0-2.558-.026-3.322.158-.765.185-1.187.58-1.187 1.384 0 1.121.804 1.74 1.925 1.74.382 0 1.028-.078 1.582-.422.554-.34 1.002-.962 1.002-2.029zm3.678 5.8c-1.002 0-2.056-.317-3.072-1.437-.54.41-1.015.764-1.582 1.015-.58.264-1.226.422-2.109.422-.949 0-2.07-.185-2.953-.818-.897-.632-1.556-1.713-1.556-3.546 0-1.2.29-2.163 1.028-2.808.739-.646 1.938-1.002 3.771-1.002.738 0 1.595 0 2.808.105v-.685c0-.949-.303-1.608-.791-2.004s-1.147-.554-1.885-.554c-1.174 0-2.558.422-3.665.936l-.725-2.689c1.437-.686 3.269-1.16 4.996-1.16 1.358 0 2.624.29 3.573 1.002.936.712 1.529 1.832 1.529 3.507v5.088c0 .646.211 1.095.581 1.411.355.316.856.515 1.45.633zm9.914-5.8c-1.437 0-2.558-.026-3.322.158-.765.185-1.187.58-1.187 1.384 0 1.121.804 1.74 1.925 1.74.383 0 1.028-.078 1.582-.422.554-.34 1.002-.962 1.002-2.029zm3.678 5.8c-1.002 0-2.057-.317-3.072-1.437-.54.41-1.014.764-1.582 1.015-.58.264-1.225.422-2.109.422-.949 0-2.069-.185-2.953-.818-.897-.632-1.556-1.713-1.556-3.546 0-1.2.29-2.163 1.028-2.808.74-.646 1.94-1.002 3.771-1.002.738 0 1.596 0 2.81.105v-.685c0-.949-.305-1.608-.792-2.004-.489-.395-1.148-.554-1.886-.554-1.173 0-2.558.422-3.665.936l-.725-2.689c1.437-.686 3.27-1.16 4.996-1.16 1.358 0 2.623.29 3.573 1.002.936.712 1.53 1.832 1.53 3.507v5.088c0 .646.21 1.095.58 1.411.355.316.856.515 1.45.633zm3.243-13.948h2.61l.303 1.069a8 8 0 0 1 4.364-1.332c1.306 0 2.558.356 3.468 1.147.91.79 1.502 1.99 1.502 3.719v9.082h-3.084v-8.173c0-1.015-.369-1.728-.936-2.176s-1.33-.632-2.163-.632a5.77 5.77 0 0 0-2.979.843v10.138h-3.085zm23.928 2.901a9.2 9.2 0 0 0-2.187-.29c-1.173 0-2.163.343-2.848 1.055-.686.712-1.081 1.766-1.081 3.19 0 1.041.29 2.057.844 2.834.553.778 1.37 1.293 2.464 1.293.937 0 1.979-.33 2.809-.844zm3.085 10.784h-2.333l-.555-1.028c-1.054.791-2.162 1.292-3.677 1.292-1.965 0-3.428-.79-4.391-2.004-.962-1.213-1.437-2.848-1.437-4.535 0-2.584.779-4.509 2.07-5.788 1.293-1.266 3.11-1.885 5.22-1.885.62 0 1.293.04 2.018.132v-5.01l2.61-.264h.475zm11.326-8.133c-.066-1.002-.422-1.715-.896-2.19a2.38 2.38 0 0 0-1.675-.658 2.72 2.72 0 0 0-1.806.672c-.541.475-.949 1.187-1.147 2.176zm2.122 4.588v2.992c-1.213.594-2.716.817-3.89.817-1.898 0-3.651-.592-4.943-1.766s-2.109-2.967-2.109-5.34c0-2.307.764-4.073 1.924-5.286a5.86 5.86 0 0 1 4.232-1.82c.435 0 1.213.053 2.018.33a4.8 4.8 0 0 1 2.346 1.714c.659.91 1.12 2.254 1.12 4.153v2.056h-8.304c.25 1.108.816 1.859 1.554 2.333.726.475 1.61.673 2.493.673 1.16 0 2.386-.33 3.441-.896zm11.297-6.738c-.776-.475-1.541-.686-2.32-.686-1.001 0-1.923.37-2.754 1.002v9.967H200.3v-13.684h2.61l.317 1.12c.949-.804 2.109-1.384 3.48-1.384.369 0 .884.026 1.384.12.502.091.989.223 1.346.42zm10.589 2.15c-.066-1.002-.422-1.715-.896-2.19a2.38 2.38 0 0 0-1.675-.658c-.633 0-1.28.21-1.806.672-.541.475-.95 1.187-1.147 2.176zm2.122 4.588v2.992c-1.213.594-2.716.817-3.89.817-1.898 0-3.651-.592-4.943-1.766s-2.11-2.967-2.11-5.34c0-2.307.765-4.073 1.925-5.286a5.86 5.86 0 0 1 4.232-1.82c.435 0 1.213.053 2.018.33a4.8 4.8 0 0 1 2.346 1.714c.659.91 1.12 2.254 1.12 4.153v2.056h-8.304c.25 1.108.816 1.859 1.554 2.333.726.475 1.61.673 2.493.673 1.16 0 2.386-.33 3.44-.896zm3.137-10.14h2.61l.303 1.069a8 8 0 0 1 4.364-1.332c1.306 0 2.558.356 3.468 1.147.909.79 1.502 1.99 1.502 3.719v9.082h-3.084v-8.173c0-1.015-.37-1.728-.936-2.176-.568-.448-1.332-.632-2.163-.632a5.77 5.77 0 0 0-2.98.843v10.138h-3.084zM115.69 150.963l-2.614 7.602h-1.516l-2.607-7.602h1.172l2.197 6.395 2.197-6.395zm5.553 3.061c-.015-1.187-.322-2.153-1.51-2.153-1.193 0-1.881.937-2.064 2.153zm1.113 1.025h-4.74c.104 1.59 1.063 2.608 2.514 2.608.68 0 1.355-.19 2.05-.542l.022.008v1.046c-.791.39-1.48.542-2.182.542-2.205 0-3.53-1.559-3.53-4.043 0-2.204 1.025-3.852 3.266-3.852 1.948 0 2.6 1.457 2.6 3.208zm1.721-4.086h.762l.263.864c.564-.651 1.165-1.01 1.868-1.01.183 0 .41.02.637.066.227.043.447.117.623.197l-.396 1.018a2.7 2.7 0 0 0-1.047-.235c-.666 0-1.187.426-1.575 1.019v5.683h-1.135zm6.643 6.475c.498.197.99.234 1.487.234 1.633 0 2.615-1.252 2.615-3.054 0-1.553-.71-2.746-2.3-2.746-.762 0-1.414.27-1.802.827zm-1.135-9.33 1.062-.147h.073v3.522a3.1 3.1 0 0 1 1.956-.666c2.065 0 3.281 1.767 3.281 3.904 0 2.328-1.363 3.992-3.83 3.992-.946 0-1.839-.25-2.542-.542zm12.298 5.916c-.016-1.187-.322-2.153-1.51-2.153-1.193 0-1.882.937-2.065 2.153zm1.113 1.025h-4.74c.104 1.59 1.063 2.608 2.513 2.608.68 0 1.355-.19 2.05-.542l.023.008v1.046c-.791.39-1.48.542-2.183.542-2.204 0-3.53-1.559-3.53-4.043 0-2.204 1.025-3.852 3.267-3.852 1.948 0 2.6 1.457 2.6 3.208zm5.889-1.025c-.016-1.187-.322-2.153-1.51-2.153-1.193 0-1.882.937-2.064 2.153zm1.113 1.025h-4.74c.104 1.59 1.063 2.608 2.514 2.608.68 0 1.354-.19 2.05-.542l.022.008v1.046c-.791.39-1.48.542-2.183.542-2.204 0-3.53-1.559-3.53-4.043 0-2.204 1.025-3.852 3.267-3.852 1.948 0 2.6 1.457 2.6 3.208zm2.775-7.089h.073v10.605h-1.128v-10.459zm7.069 4.196a4.2 4.2 0 0 0-1.487-.3c-.762 0-1.413.241-1.875.726-.47.482-.74 1.208-.74 2.168 0 .761.168 1.486.54 2.021.375.534.947.886 1.759.886.762 0 1.4-.264 1.803-.827zm1.135 6.416h-.718l-.234-.674c-.58.498-1.26.814-2.14.814-.995 0-1.816-.462-2.387-1.202-.571-.732-.893-1.743-.893-2.856 0-1.076.307-2.029.937-2.725.63-.695 1.582-1.113 2.894-1.113.498 0 .959.067 1.406.154v-2.864l1.06-.146h.075zm2.563-7.609h1.128v7.602h-1.128Zm-.22-2.072c0-.44.344-.785.784-.785.439 0 .791.345.791.785a.793.793 0 0 1-.791.775c-.411 0-.784-.365-.784-.775m3.918 2.072H168l.213.703a6.4 6.4 0 0 1 1.097-.578c.404-.162.821-.271 1.18-.271.725 0 1.391.183 1.89.636.491.455.797 1.172.797 2.249v4.863h-1.134v-4.797c0-.733-.19-1.208-.484-1.501-.3-.293-.717-.404-1.178-.404-.352 0-.71.096-1.055.235s-.66.322-.953.498v5.969h-1.135zm10.54.864c-.563 0-.996.212-1.289.513a1.55 1.55 0 0 0-.44 1.076c0 .381.154.777.447 1.077s.725.505 1.305.505c.563 0 .988-.205 1.273-.505.286-.293.426-.68.426-1.06 0-.382-.147-.786-.433-1.093-.293-.308-.725-.513-1.289-.513m-1.2 6.123c-.41.47-.675 1.062-.675 1.59 0 .446.124.835.417 1.105.293.271.755.433 1.43.433.76 0 1.412-.25 1.881-.608.461-.352.725-.82.725-1.283 0-.563-.329-.87-.856-1.046-.535-.168-1.268-.19-2.067-.19zm1.868-.974c1.047 0 1.816.241 2.321.636.498.396.747.938.747 1.502 0 .827-.505 1.567-1.245 2.094a4.67 4.67 0 0 1-2.666.857c-.872 0-1.575-.27-2.057-.71a2.26 2.26 0 0 1-.755-1.713c0-.616.33-1.348.908-1.934-.205-.117-.358-.316-.462-.543a1.7 1.7 0 0 1-.16-.68c0-.41.19-.88.55-1.326a2.1 2.1 0 0 1-.47-.828 3.2 3.2 0 0 1-.16-.982 2.4 2.4 0 0 1 .783-1.809c.498-.453 1.201-.725 2.028-.725.564 0 1.062.125 1.472.352.322-.242.69-.44 1.025-.57.338-.133.661-.2.916-.2l.337.96c-.403.066-.93.235-1.428.55.286.41.44.886.44 1.413 0 .726-.294 1.392-.792 1.882-.505.491-1.215.8-2.043.8a3.15 3.15 0 0 1-1.406-.33c-.168.212-.256.425-.256.622 0 .381.33.682.938.682zm19.034-6.013-2.41 7.602h-1.405l-1.692-5.786-1.692 5.786h-1.413l-2.404-7.602h1.1l2.007 6.35 1.882-6.35h1.04l1.882 6.35 2.013-6.35zm5.56 3.061c-.015-1.187-.323-2.153-1.509-2.153-1.194 0-1.883.937-2.066 2.153zm1.113 1.025h-4.738c.103 1.59 1.062 2.608 2.512 2.608.681 0 1.355-.19 2.05-.542l.023.008v1.046c-.79.39-1.48.542-2.183.542-2.205 0-3.53-1.559-3.53-4.043 0-2.204 1.025-3.852 3.267-3.852 1.948 0 2.6 1.457 2.6 3.208zm1.721-4.086h.762l.263.864c.564-.651 1.166-1.01 1.869-1.01.182 0 .41.02.636.066.227.043.448.117.623.197l-.396 1.018a2.7 2.7 0 0 0-1.047-.235c-.666 0-1.187.426-1.574 1.019v5.683h-1.136zm10.796 7.749c-.381-.022-.828-.264-1.274-.615-.447-.345-.915-.814-1.326-1.29a15 15 0 0 1-1.07-1.34 6 6 0 0 1-.33-.49 1.6 1.6 0 0 1-.152-.272v3.86h-1.136v-10.407l1.06-.198h.076v6.607l3.017-3.604h1.449l-3.09 3.677c.037.169.278.52.63.93.35.417.806.893 1.275 1.296.469.404.95.726 1.34.843zm.975-7.749h.841V149.6l1.063-.2h.073v1.562h2.11v1.055h-2.11v3.735c0 .696.153 1.165.395 1.472.243.308.587.439.976.439.439 0 .929-.168 1.427-.453l.308 1.039c-.645.293-1.282.462-1.876.462-.667 0-1.245-.205-1.677-.681-.431-.468-.689-1.216-.689-2.278v-3.735h-.841z"/></svg>
